<?xml version="1.0" encoding="UTF-8" standalone="no"?>
<svg width="282.222mm" height="282.222mm"
 viewBox="0 0 800 800"
 xmlns="http://www.w3.org/2000/svg" xmlns:xlink="http://www.w3.org/1999/xlink"  version="1.2" baseProfile="tiny">
<title>Qt SVG Document</title>
<desc>Generated with Qt</desc>
<defs>
</defs>
<g fill="none" stroke="black" stroke-width="1" fill-rule="evenodd" stroke-linecap="square" stroke-linejoin="bevel" >

<g fill="#000000" fill-opacity="1" stroke="none" transform="matrix(1,0,0,1,0,0)"
font-family="Noto Sans" font-size="10" font-weight="400" font-style="normal" 
>
<rect x="0" y="0" width="800" height="800"/>
</g>

<g fill="none" stroke="#ffffff" stroke-opacity="1" stroke-width="1" stroke-linecap="round" stroke-linejoin="round" transform="matrix(1,0,0,1,0,0)"
font-family="Noto Sans" font-size="10" font-weight="400" font-style="normal" 
>
<polyline fill="none" vector-effect="non-scaling-stroke" points="132,706 769,706 " />
<polyline fill="none" vector-effect="non-scaling-stroke" points="769,706 769,133 " />
<polyline fill="none" vector-effect="non-scaling-stroke" points="769,133 132,133 " />
<polyline fill="none" vector-effect="non-scaling-stroke" points="132,133 132,706 " />
</g>

<g fill="none" stroke="#ff00ff" stroke-opacity="1" stroke-width="1" stroke-linecap="round" stroke-linejoin="round" transform="matrix(1,0,0,1,0,0)"
font-family="Noto Sans" font-size="10" font-weight="400" font-style="normal" 
>
<polyline fill="none" vector-effect="non-scaling-stroke" points="145,690 756,690 " />
<polyline fill="none" vector-effect="non-scaling-stroke" points="756,690 756,149 " />
<polyline fill="none" vector-effect="non-scaling-stroke" points="756,149 145,149 " />
<polyline fill="none" vector-effect="non-scaling-stroke" points="145,149 145,690 " />
</g>

<g fill="none" stroke="#008000" stroke-opacity="1" stroke-width="1" stroke-linecap="round" stroke-linejoin="round" transform="matrix(1,0,0,1,0,0)"
font-family="Noto Sans" font-size="10" font-weight="400" font-style="normal" 
>
<polyline fill="none" vector-effect="non-scaling-stroke" points="145,638 145,628 " />
<polyline fill="none" vector-effect="non-scaling-stroke" points="756,638 756,628 " />
<polyline fill="none" vector-effect="non-scaling-stroke" points="145,636 756,636 " />
</g>

<g fill="#008000" fill-opacity="1" stroke="#008000" stroke-opacity="1" stroke-width="1" stroke-linecap="round" stroke-linejoin="round" transform="matrix(1,0,0,1,0,0)"
font-family="Noto Sans" font-size="10" font-weight="400" font-style="normal" 
>
<path vector-effect="non-scaling-stroke" fill-rule="evenodd" d="M145,636 L161,633 L161,639 L145,636"/>
</g>

<g fill="#008000" fill-opacity="1" stroke="#008000" stroke-opacity="1" stroke-width="1" stroke-linecap="round" stroke-linejoin="round" transform="matrix(1,0,0,1,0,0)"
font-family="Noto Sans" font-size="10" font-weight="400" font-style="normal" 
>
<path vector-effect="non-scaling-stroke" fill-rule="evenodd" d="M756,636 L740,639 L740,633 L756,636"/>
</g>

<g fill="none" stroke="#008000" stroke-opacity="1" stroke-width="1" stroke-linecap="round" stroke-linejoin="round" transform="matrix(1,0,0,1,0,0)"
font-family="Noto Sans" font-size="10" font-weight="400" font-style="normal" 
>
<polyline fill="none" vector-effect="non-scaling-stroke" points="448,625 444,625 " />
<polyline fill="none" vector-effect="non-scaling-stroke" points="441,621 441,623 442,624 444,625 " />
<polyline fill="none" vector-effect="non-scaling-stroke" points="441,621 441,620 " />
<polyline fill="none" vector-effect="non-scaling-stroke" points="448,620 447,618 446,617 445,616 443,616 442,617 441,619 441,620 " />
<polyline fill="none" vector-effect="non-scaling-stroke" points="448,620 448,625 " />
<polyline fill="none" vector-effect="non-scaling-stroke" points="443,632 444,631 446,630 447,628 448,626 448,625 " />
<polyline fill="none" vector-effect="non-scaling-stroke" points="453,623 457,623 " />
<polyline fill="none" vector-effect="non-scaling-stroke" points="460,627 460,625 459,624 457,623 " />
<polyline fill="none" vector-effect="non-scaling-stroke" points="460,627 460,628 " />
<polyline fill="none" vector-effect="non-scaling-stroke" points="453,628 454,630 455,631 456,632 458,632 460,631 460,629 460,628 " />
<polyline fill="none" vector-effect="non-scaling-stroke" points="453,628 453,623 " />
<polyline fill="none" vector-effect="non-scaling-stroke" points="459,616 457,617 455,618 454,620 453,622 453,623 " />
<polyline fill="none" vector-effect="non-scaling-stroke" points="202,690 202,149 " />
</g>

<g fill="#008000" fill-opacity="1" stroke="#008000" stroke-opacity="1" stroke-width="1" stroke-linecap="round" stroke-linejoin="round" transform="matrix(1,0,0,1,0,0)"
font-family="Noto Sans" font-size="10" font-weight="400" font-style="normal" 
>
<path vector-effect="non-scaling-stroke" fill-rule="evenodd" d="M202,690 L199,674 L205,674 L202,690"/>
</g>

<g fill="#008000" fill-opacity="1" stroke="#008000" stroke-opacity="1" stroke-width="1" stroke-linecap="round" stroke-linejoin="round" transform="matrix(1,0,0,1,0,0)"
font-family="Noto Sans" font-size="10" font-weight="400" font-style="normal" 
>
<path vector-effect="non-scaling-stroke" fill-rule="evenodd" d="M202,149 L205,164 L199,164 L202,149"/>
</g>

<g fill="none" stroke="#008000" stroke-opacity="1" stroke-width="1" stroke-linecap="round" stroke-linejoin="round" transform="matrix(1,0,0,1,0,0)"
font-family="Noto Sans" font-size="10" font-weight="400" font-style="normal" 
>
<polyline fill="none" vector-effect="non-scaling-stroke" points="195,422 193,422 " />
<polyline fill="none" vector-effect="non-scaling-stroke" points="193,422 191,422 190,424 189,425 190,427 191,428 192,429 193,429 " />
<polyline fill="none" vector-effect="non-scaling-stroke" points="193,429 195,429 " />
<polyline fill="none" vector-effect="non-scaling-stroke" points="195,429 196,429 198,427 198,426 198,424 197,423 195,422 " />
<polyline fill="none" vector-effect="non-scaling-stroke" points="189,426 189,424 188,423 186,422 184,422 183,423 182,425 182,426 " />
<polyline fill="none" vector-effect="non-scaling-stroke" points="182,426 183,427 184,428 185,429 187,429 189,428 189,426 " />
<polyline fill="none" vector-effect="non-scaling-stroke" points="182,410 182,417 " />
<polyline fill="none" vector-effect="non-scaling-stroke" points="182,417 189,417 " />
<polyline fill="none" vector-effect="non-scaling-stroke" points="189,417 189,413 " />
<polyline fill="none" vector-effect="non-scaling-stroke" points="193,410 191,410 190,411 189,413 " />
<polyline fill="none" vector-effect="non-scaling-stroke" points="193,410 195,410 " />
<polyline fill="none" vector-effect="non-scaling-stroke" points="198,413 198,411 196,410 195,410 " />
<polyline fill="none" vector-effect="non-scaling-stroke" points="198,413 198,417 " />
<polyline fill="none" vector-effect="non-scaling-stroke" points="200,690 210,690 " />
<polyline fill="none" vector-effect="non-scaling-stroke" points="200,149 210,149 " />
<polyline fill="none" vector-effect="non-scaling-stroke" points="132,738 769,738 " />
</g>

<g fill="#008000" fill-opacity="1" stroke="#008000" stroke-opacity="1" stroke-width="1" stroke-linecap="round" stroke-linejoin="round" transform="matrix(1,0,0,1,0,0)"
font-family="Noto Sans" font-size="10" font-weight="400" font-style="normal" 
>
<path vector-effect="non-scaling-stroke" fill-rule="evenodd" d="M132,738 L148,735 L148,741 L132,738"/>
</g>

<g fill="#008000" fill-opacity="1" stroke="#008000" stroke-opacity="1" stroke-width="1" stroke-linecap="round" stroke-linejoin="round" transform="matrix(1,0,0,1,0,0)"
font-family="Noto Sans" font-size="10" font-weight="400" font-style="normal" 
>
<path vector-effect="non-scaling-stroke" fill-rule="evenodd" d="M769,738 L753,741 L753,735 L769,738"/>
</g>

<g fill="none" stroke="#008000" stroke-opacity="1" stroke-width="1" stroke-linecap="round" stroke-linejoin="round" transform="matrix(1,0,0,1,0,0)"
font-family="Noto Sans" font-size="10" font-weight="400" font-style="normal" 
>
<polyline fill="none" vector-effect="non-scaling-stroke" points="436,721 440,718 " />
<polyline fill="none" vector-effect="non-scaling-stroke" points="440,718 440,734 " />
<polyline fill="none" vector-effect="non-scaling-stroke" points="451,719 450,718 449,718 448,718 447,719 " />
<polyline fill="none" vector-effect="non-scaling-stroke" points="447,719 446,721 446,723 445,725 445,727 445,729 446,730 447,732 447,733 " />
<polyline fill="none" vector-effect="non-scaling-stroke" points="447,733 448,734 449,734 450,734 451,733 " />
<polyline fill="none" vector-effect="non-scaling-stroke" points="451,733 451,731 452,729 452,727 452,725 452,723 452,721 451,719 " />
<polyline fill="none" vector-effect="non-scaling-stroke" points="463,719 462,718 461,718 460,718 459,719 " />
<polyline fill="none" vector-effect="non-scaling-stroke" points="459,719 459,721 458,723 458,725 458,727 458,729 458,730 459,732 459,733 " />
<polyline fill="none" vector-effect="non-scaling-stroke" points="459,733 460,734 461,734 462,734 463,733 " />
<polyline fill="none" vector-effect="non-scaling-stroke" points="463,733 464,731 464,729 465,727 465,725 464,723 464,721 463,719 " />
<polyline fill="none" vector-effect="non-scaling-stroke" points="132,710 132,746 " />
<polyline fill="none" vector-effect="non-scaling-stroke" points="769,710 769,746 " />
<polyline fill="none" vector-effect="non-scaling-stroke" points="100,706 100,133 " />
</g>

<g fill="#008000" fill-opacity="1" stroke="#008000" stroke-opacity="1" stroke-width="1" stroke-linecap="round" stroke-linejoin="round" transform="matrix(1,0,0,1,0,0)"
font-family="Noto Sans" font-size="10" font-weight="400" font-style="normal" 
>
<path vector-effect="non-scaling-stroke" fill-rule="evenodd" d="M100,706 L97,690 L103,690 L100,706"/>
</g>

<g fill="#008000" fill-opacity="1" stroke="#008000" stroke-opacity="1" stroke-width="1" stroke-linecap="round" stroke-linejoin="round" transform="matrix(1,0,0,1,0,0)"
font-family="Noto Sans" font-size="10" font-weight="400" font-style="normal" 
>
<path vector-effect="non-scaling-stroke" fill-rule="evenodd" d="M100,133 L103,149 L97,149 L100,133"/>
</g>

<g fill="none" stroke="#008000" stroke-opacity="1" stroke-width="1" stroke-linecap="round" stroke-linejoin="round" transform="matrix(1,0,0,1,0,0)"
font-family="Noto Sans" font-size="10" font-weight="400" font-style="normal" 
>
<polyline fill="none" vector-effect="non-scaling-stroke" points="89,422 89,426 " />
<polyline fill="none" vector-effect="non-scaling-stroke" points="86,429 87,429 89,427 89,426 " />
<polyline fill="none" vector-effect="non-scaling-stroke" points="86,429 84,429 " />
<polyline fill="none" vector-effect="non-scaling-stroke" points="84,422 82,422 81,424 80,425 81,427 82,428 83,429 84,429 " />
<polyline fill="none" vector-effect="non-scaling-stroke" points="84,422 89,422 " />
<polyline fill="none" vector-effect="non-scaling-stroke" points="96,427 95,425 94,424 92,423 91,422 89,422 " />
<polyline fill="none" vector-effect="non-scaling-stroke" points="81,411 80,412 80,413 81,414 81,415 " />
<polyline fill="none" vector-effect="non-scaling-stroke" points="81,415 83,416 85,416 87,417 89,417 91,416 93,416 95,415 " />
<polyline fill="none" vector-effect="non-scaling-stroke" points="95,415 96,414 96,413 96,412 95,411 " />
<polyline fill="none" vector-effect="non-scaling-stroke" points="95,411 93,411 92,410 90,410 88,410 86,410 84,410 82,411 81,411 " />
<polyline fill="none" vector-effect="non-scaling-stroke" points="128,706 92,706 " />
<polyline fill="none" vector-effect="non-scaling-stroke" points="128,133 92,133 " />
</g>

<g fill="none" stroke="#ffffff" stroke-opacity="1" stroke-width="1" stroke-linecap="round" stroke-linejoin="round" transform="matrix(1,0,0,1,0,0)"
font-family="Noto Sans" font-size="10" font-weight="400" font-style="normal" 
>
<polyline fill="none" vector-effect="non-scaling-stroke" points="30,381 43,398 " />
<polyline fill="none" vector-effect="non-scaling-stroke" points="43,398 56,381 " />
<polyline fill="none" vector-effect="non-scaling-stroke" points="43,419 43,398 " />
<polyline fill="none" vector-effect="non-scaling-stroke" points="438,795 463,757 " />
<polyline fill="none" vector-effect="non-scaling-stroke" points="438,757 463,795 " />
</g>

<g fill="none" stroke="#008000" stroke-opacity="1" stroke-width="1" stroke-linecap="round" stroke-linejoin="round" transform="matrix(1,0,0,1,0,0)"
font-family="Noto Sans" font-size="10" font-weight="400" font-style="normal" 
>
<polyline fill="none" vector-effect="non-scaling-stroke" points="444,419 444,149 " />
</g>

<g fill="#008000" fill-opacity="1" stroke="#008000" stroke-opacity="1" stroke-width="1" stroke-linecap="round" stroke-linejoin="round" transform="matrix(1,0,0,1,0,0)"
font-family="Noto Sans" font-size="10" font-weight="400" font-style="normal" 
>
<path vector-effect="non-scaling-stroke" fill-rule="evenodd" d="M444,419 L442,403 L447,403 L444,419"/>
</g>

<g fill="#008000" fill-opacity="1" stroke="#008000" stroke-opacity="1" stroke-width="1" stroke-linecap="round" stroke-linejoin="round" transform="matrix(1,0,0,1,0,0)"
font-family="Noto Sans" font-size="10" font-weight="400" font-style="normal" 
>
<path vector-effect="non-scaling-stroke" fill-rule="evenodd" d="M444,149 L447,164 L442,164 L444,149"/>
</g>

<g fill="none" stroke="#008000" stroke-opacity="1" stroke-width="1" stroke-linecap="round" stroke-linejoin="round" transform="matrix(1,0,0,1,0,0)"
font-family="Noto Sans" font-size="10" font-weight="400" font-style="normal" 
>
<polyline fill="none" vector-effect="non-scaling-stroke" points="424,300 437,304 " />
<polyline fill="none" vector-effect="non-scaling-stroke" points="437,304 437,295 " />
<polyline fill="none" vector-effect="non-scaling-stroke" points="433,298 440,298 " />
<polyline fill="none" vector-effect="non-scaling-stroke" points="427,290 426,289 " />
<polyline fill="none" vector-effect="non-scaling-stroke" points="430,283 428,283 426,283 425,284 424,286 425,288 426,289 " />
<polyline fill="none" vector-effect="non-scaling-stroke" points="430,283 440,290 " />
<polyline fill="none" vector-effect="non-scaling-stroke" points="440,290 440,283 " />
<polyline fill="none" vector-effect="non-scaling-stroke" points="444,277 440,276 " />
<polyline fill="none" vector-effect="non-scaling-stroke" points="424,264 424,271 " />
<polyline fill="none" vector-effect="non-scaling-stroke" points="424,271 431,271 " />
<polyline fill="none" vector-effect="non-scaling-stroke" points="431,271 431,268 " />
<polyline fill="none" vector-effect="non-scaling-stroke" points="435,264 433,264 432,266 431,267 431,268 " />
<polyline fill="none" vector-effect="non-scaling-stroke" points="435,264 437,264 " />
<polyline fill="none" vector-effect="non-scaling-stroke" points="440,268 440,266 439,265 437,264 " />
<polyline fill="none" vector-effect="non-scaling-stroke" points="440,268 440,271 " />
<polyline fill="none" vector-effect="non-scaling-stroke" points="447,419 436,419 " />
<polyline fill="none" vector-effect="non-scaling-stroke" points="447,149 436,149 " />
<polyline fill="none" vector-effect="non-scaling-stroke" points="451,413 756,413 " />
</g>

<g fill="#008000" fill-opacity="1" stroke="#008000" stroke-opacity="1" stroke-width="1" stroke-linecap="round" stroke-linejoin="round" transform="matrix(1,0,0,1,0,0)"
font-family="Noto Sans" font-size="10" font-weight="400" font-style="normal" 
>
<path vector-effect="non-scaling-stroke" fill-rule="evenodd" d="M451,413 L466,410 L466,416 L451,413"/>
</g>

<g fill="#008000" fill-opacity="1" stroke="#008000" stroke-opacity="1" stroke-width="1" stroke-linecap="round" stroke-linejoin="round" transform="matrix(1,0,0,1,0,0)"
font-family="Noto Sans" font-size="10" font-weight="400" font-style="normal" 
>
<path vector-effect="non-scaling-stroke" fill-rule="evenodd" d="M756,413 L740,416 L740,410 L756,413"/>
</g>

<g fill="none" stroke="#008000" stroke-opacity="1" stroke-width="1" stroke-linecap="round" stroke-linejoin="round" transform="matrix(1,0,0,1,0,0)"
font-family="Noto Sans" font-size="10" font-weight="400" font-style="normal" 
>
<polyline fill="none" vector-effect="non-scaling-stroke" points="596,393 593,405 " />
<polyline fill="none" vector-effect="non-scaling-stroke" points="593,405 602,405 " />
<polyline fill="none" vector-effect="non-scaling-stroke" points="599,402 599,409 " />
<polyline fill="none" vector-effect="non-scaling-stroke" points="614,405 614,404 " />
<polyline fill="none" vector-effect="non-scaling-stroke" points="614,404 614,402 612,401 611,400 609,400 608,402 607,403 607,404 " />
<polyline fill="none" vector-effect="non-scaling-stroke" points="607,404 607,405 " />
<polyline fill="none" vector-effect="non-scaling-stroke" points="607,405 607,407 609,408 610,409 612,409 613,408 614,406 614,405 " />
<polyline fill="none" vector-effect="non-scaling-stroke" points="611,400 612,400 614,398 614,397 614,395 613,394 611,393 " />
<polyline fill="none" vector-effect="non-scaling-stroke" points="611,393 609,393 608,395 607,396 607,398 608,399 610,400 611,400 " />
<polyline fill="none" vector-effect="non-scaling-stroke" points="451,415 451,405 " />
<polyline fill="none" vector-effect="non-scaling-stroke" points="756,415 756,405 " />
</g>

<g fill="none" stroke="#ffffff" stroke-opacity="1" stroke-width="1" stroke-linecap="round" stroke-linejoin="round" transform="matrix(1,0,0,1,0,0)"
font-family="Noto Sans" font-size="10" font-weight="400" font-style="normal" 
>
<polyline fill="none" vector-effect="non-scaling-stroke" points="159,34 141,34 " />
<polyline fill="none" vector-effect="non-scaling-stroke" points="159,34 161,33 162,33 164,32 166,31 168,30 169,29 170,27 171,25 172,24 173,22 173,20 173,18 172,16 172,14 171,12 169,10 168,9 167,8 165,7 163,6 161,5 159,5 " />
<polyline fill="none" vector-effect="non-scaling-stroke" points="159,5 141,5 " />
<polyline fill="none" vector-effect="non-scaling-stroke" points="141,5 141,69 " />
<polyline fill="none" vector-effect="non-scaling-stroke" points="141,69 159,69 " />
<polyline fill="none" vector-effect="non-scaling-stroke" points="159,69 161,69 163,68 164,68 166,67 168,66 170,65 171,64 172,62 174,61 175,59 175,57 176,55 176,53 176,51 176,49 176,47 175,45 174,43 173,42 172,40 171,38 169,37 168,36 166,35 164,34 162,34 160,34 159,34 " />
<polyline fill="none" vector-effect="non-scaling-stroke" points="197,55 198,57 198,59 199,61 200,62 201,64 202,65 204,67 206,68 207,68 209,69 211,69 213,69 215,68 217,68 219,67 221,66 222,64 223,63 224,61 225,59 226,57 226,55 " />
<polyline fill="none" vector-effect="non-scaling-stroke" points="197,55 197,41 " />
<polyline fill="none" vector-effect="non-scaling-stroke" points="226,41 226,39 225,37 225,35 224,33 222,31 221,30 219,29 218,28 216,27 214,27 212,26 210,27 208,27 206,28 204,29 203,30 201,31 200,33 199,34 198,36 198,38 197,40 197,41 " />
<polyline fill="none" vector-effect="non-scaling-stroke" points="226,41 226,55 " />
<polyline fill="none" vector-effect="non-scaling-stroke" points="254,69 254,5 " />
<polyline fill="none" vector-effect="non-scaling-stroke" points="247,26 268,26 " />
<polyline fill="none" vector-effect="non-scaling-stroke" points="297,69 297,5 " />
<polyline fill="none" vector-effect="non-scaling-stroke" points="290,26 311,26 " />
<polyline fill="none" vector-effect="non-scaling-stroke" points="332,55 332,57 333,59 333,61 334,62 335,64 337,65 338,67 340,68 342,68 344,69 346,69 348,69 350,68 352,68 354,67 355,66 357,64 358,63 359,61 360,59 360,57 360,55 " />
<polyline fill="none" vector-effect="non-scaling-stroke" points="332,55 332,41 " />
<polyline fill="none" vector-effect="non-scaling-stroke" points="360,41 360,39 360,37 359,35 358,33 357,31 356,30 354,29 352,28 350,27 348,27 346,26 344,27 342,27 341,28 339,29 337,30 336,31 334,33 333,34 333,36 332,38 332,40 332,41 " />
<polyline fill="none" vector-effect="non-scaling-stroke" points="360,41 360,55 " />
<polyline fill="none" vector-effect="non-scaling-stroke" points="403,69 403,26 " />
<polyline fill="none" vector-effect="non-scaling-stroke" points="382,69 382,26 " />
<polyline fill="none" vector-effect="non-scaling-stroke" points="382,26 413,26 " />
<polyline fill="none" vector-effect="non-scaling-stroke" points="424,37 424,35 423,33 422,31 421,30 420,28 418,27 416,27 414,26 413,26 " />
<polyline fill="none" vector-effect="non-scaling-stroke" points="424,37 424,69 " />
<polyline fill="none" vector-effect="non-scaling-stroke" points="493,62 495,63 496,64 498,65 500,66 502,67 504,67 506,68 508,68 509,69 511,69 513,69 514,69 " />
<polyline fill="none" vector-effect="non-scaling-stroke" points="514,69 516,69 518,68 520,68 522,67 523,66 525,64 526,63 527,61 528,59 528,57 528,55 528,53 528,51 527,49 526,47 525,46 524,44 522,43 521,42 " />
<polyline fill="none" vector-effect="non-scaling-stroke" points="521,42 501,32 " />
<polyline fill="none" vector-effect="non-scaling-stroke" points="507,5 505,5 503,6 501,6 500,7 498,9 497,10 495,12 494,13 494,15 493,17 493,19 493,21 494,23 494,25 495,27 496,28 498,30 499,31 501,32 " />
<polyline fill="none" vector-effect="non-scaling-stroke" points="525,9 523,8 521,7 519,7 517,6 515,6 513,6 511,5 509,5 507,5 " />
<polyline fill="none" vector-effect="non-scaling-stroke" points="550,69 550,26 " />
<polyline fill="none" vector-effect="non-scaling-stroke" points="550,9 550,5 " />
<polyline fill="none" vector-effect="non-scaling-stroke" points="599,5 599,69 " />
<polyline fill="none" vector-effect="non-scaling-stroke" points="599,69 582,69 " />
<polyline fill="none" vector-effect="non-scaling-stroke" points="571,58 571,60 572,62 573,64 574,66 575,67 577,68 579,69 581,69 582,69 " />
<polyline fill="none" vector-effect="non-scaling-stroke" points="571,58 571,37 " />
<polyline fill="none" vector-effect="non-scaling-stroke" points="582,26 580,27 578,27 576,28 574,29 573,31 572,33 571,34 571,36 571,37 " />
<polyline fill="none" vector-effect="non-scaling-stroke" points="582,26 599,26 " />
<polyline fill="none" vector-effect="non-scaling-stroke" points="649,69 631,69 " />
<polyline fill="none" vector-effect="non-scaling-stroke" points="620,58 621,60 621,62 622,64 623,66 625,67 627,68 628,69 630,69 631,69 " />
<polyline fill="none" vector-effect="non-scaling-stroke" points="620,58 620,41 " />
<polyline fill="none" vector-effect="non-scaling-stroke" points="649,41 649,39 648,37 648,35 647,33 645,31 644,30 642,29 641,28 639,27 637,27 635,26 633,27 631,27 629,28 627,29 626,30 624,31 623,33 622,34 621,36 621,38 620,40 620,41 " />
<polyline fill="none" vector-effect="non-scaling-stroke" points="649,41 649,48 " />
<polyline fill="none" vector-effect="non-scaling-stroke" points="649,48 620,48 " />
<polyline fill="none" vector-effect="non-scaling-stroke" points="724,51 754,51 " />
<polyline fill="none" vector-effect="non-scaling-stroke" points="718,69 739,5 " />
<polyline fill="none" vector-effect="non-scaling-stroke" points="739,5 760,69 " />
</g>
</g>
</svg>
