<?xml version="1.0" encoding="UTF-8" standalone="no"?>
<svg width="282.222mm" height="282.222mm"
 viewBox="0 0 800 800"
 xmlns="http://www.w3.org/2000/svg" xmlns:xlink="http://www.w3.org/1999/xlink"  version="1.2" baseProfile="tiny">
<title>Qt SVG Document</title>
<desc>Generated with Qt</desc>
<defs>
</defs>
<g fill="none" stroke="black" stroke-width="1" fill-rule="evenodd" stroke-linecap="square" stroke-linejoin="bevel" >

<g fill="#000000" fill-opacity="1" stroke="none" transform="matrix(1,0,0,1,0,0)"
font-family="Noto Sans" font-size="10" font-weight="400" font-style="normal" 
>
<rect x="0" y="0" width="800" height="800"/>
</g>

<g fill="none" stroke="#ffffff" stroke-opacity="1" stroke-width="1" stroke-linecap="round" stroke-linejoin="round" transform="matrix(1,0,0,1,0,0)"
font-family="Noto Sans" font-size="10" font-weight="400" font-style="normal" 
>
<polyline fill="none" vector-effect="non-scaling-stroke" points="45,525 295,525 " />
<polyline fill="none" vector-effect="non-scaling-stroke" points="295,525 295,300 " />
<polyline fill="none" vector-effect="non-scaling-stroke" points="295,300 45,300 " />
<polyline fill="none" vector-effect="non-scaling-stroke" points="45,300 45,525 " />
</g>

<g fill="none" stroke="#ff00ff" stroke-opacity="1" stroke-width="1" stroke-linecap="round" stroke-linejoin="round" transform="matrix(1,0,0,1,0,0)"
font-family="Noto Sans" font-size="10" font-weight="400" font-style="normal" 
>
<polyline fill="none" vector-effect="non-scaling-stroke" points="50,519 290,519 " />
<polyline fill="none" vector-effect="non-scaling-stroke" points="290,519 290,306 " />
<polyline fill="none" vector-effect="non-scaling-stroke" points="290,306 50,306 " />
<polyline fill="none" vector-effect="non-scaling-stroke" points="50,306 50,519 " />
</g>

<g fill="none" stroke="#008000" stroke-opacity="1" stroke-width="1" stroke-linecap="round" stroke-linejoin="round" transform="matrix(1,0,0,1,0,0)"
font-family="Noto Sans" font-size="10" font-weight="400" font-style="normal" 
>
<polyline fill="none" vector-effect="non-scaling-stroke" points="50,498 50,494 " />
<polyline fill="none" vector-effect="non-scaling-stroke" points="290,498 290,494 " />
<polyline fill="none" vector-effect="non-scaling-stroke" points="50,498 290,498 " />
</g>

<g fill="#008000" fill-opacity="1" stroke="#008000" stroke-opacity="1" stroke-width="1" stroke-linecap="round" stroke-linejoin="round" transform="matrix(1,0,0,1,0,0)"
font-family="Noto Sans" font-size="10" font-weight="400" font-style="normal" 
>
<path vector-effect="non-scaling-stroke" fill-rule="evenodd" d="M50,498 L56,496 L56,499 L50,498"/>
</g>

<g fill="#008000" fill-opacity="1" stroke="#008000" stroke-opacity="1" stroke-width="1" stroke-linecap="round" stroke-linejoin="round" transform="matrix(1,0,0,1,0,0)"
font-family="Noto Sans" font-size="10" font-weight="400" font-style="normal" 
>
<path vector-effect="non-scaling-stroke" fill-rule="evenodd" d="M290,498 L284,499 L284,496 L290,498"/>
</g>

<g fill="none" stroke="#008000" stroke-opacity="1" stroke-width="1" stroke-linecap="round" stroke-linejoin="round" transform="matrix(1,0,0,1,0,0)"
font-family="Noto Sans" font-size="10" font-weight="400" font-style="normal" 
>
<polyline fill="none" vector-effect="non-scaling-stroke" points="169,493 168,493 " />
<polyline fill="none" vector-effect="non-scaling-stroke" points="166,492 166,492 167,493 167,493 168,493 " />
<polyline fill="none" vector-effect="non-scaling-stroke" points="166,492 166,491 " />
<polyline fill="none" vector-effect="non-scaling-stroke" points="169,491 169,490 168,490 168,490 167,490 166,490 166,491 " />
<polyline fill="none" vector-effect="non-scaling-stroke" points="169,491 169,493 " />
<polyline fill="none" vector-effect="non-scaling-stroke" points="167,496 168,495 169,494 169,493 " />
<polyline fill="none" vector-effect="non-scaling-stroke" points="171,492 172,492 " />
<polyline fill="none" vector-effect="non-scaling-stroke" points="174,494 174,493 173,493 173,492 172,492 " />
<polyline fill="none" vector-effect="non-scaling-stroke" points="174,494 174,495 " />
<polyline fill="none" vector-effect="non-scaling-stroke" points="171,495 171,495 172,496 172,496 173,496 174,495 174,495 " />
<polyline fill="none" vector-effect="non-scaling-stroke" points="171,495 171,492 " />
<polyline fill="none" vector-effect="non-scaling-stroke" points="173,490 172,490 171,492 " />
<polyline fill="none" vector-effect="non-scaling-stroke" points="73,519 73,306 " />
</g>

<g fill="#008000" fill-opacity="1" stroke="#008000" stroke-opacity="1" stroke-width="1" stroke-linecap="round" stroke-linejoin="round" transform="matrix(1,0,0,1,0,0)"
font-family="Noto Sans" font-size="10" font-weight="400" font-style="normal" 
>
<path vector-effect="non-scaling-stroke" fill-rule="evenodd" d="M73,519 L71,512 L74,512 L73,519"/>
</g>

<g fill="#008000" fill-opacity="1" stroke="#008000" stroke-opacity="1" stroke-width="1" stroke-linecap="round" stroke-linejoin="round" transform="matrix(1,0,0,1,0,0)"
font-family="Noto Sans" font-size="10" font-weight="400" font-style="normal" 
>
<path vector-effect="non-scaling-stroke" fill-rule="evenodd" d="M73,306 L74,312 L71,312 L73,306"/>
</g>

<g fill="none" stroke="#008000" stroke-opacity="1" stroke-width="1" stroke-linecap="round" stroke-linejoin="round" transform="matrix(1,0,0,1,0,0)"
font-family="Noto Sans" font-size="10" font-weight="400" font-style="normal" 
>
<polyline fill="none" vector-effect="non-scaling-stroke" points="70,414 69,414 " />
<polyline fill="none" vector-effect="non-scaling-stroke" points="69,414 68,414 68,414 67,415 68,416 68,416 69,416 " />
<polyline fill="none" vector-effect="non-scaling-stroke" points="69,416 70,416 " />
<polyline fill="none" vector-effect="non-scaling-stroke" points="70,416 70,416 71,416 71,415 71,414 70,414 70,414 " />
<polyline fill="none" vector-effect="non-scaling-stroke" points="67,415 67,414 67,414 66,414 65,414 65,414 65,415 " />
<polyline fill="none" vector-effect="non-scaling-stroke" points="65,415 65,416 65,416 66,416 67,416 67,416 67,415 " />
<polyline fill="none" vector-effect="non-scaling-stroke" points="65,409 65,411 " />
<polyline fill="none" vector-effect="non-scaling-stroke" points="65,411 67,411 " />
<polyline fill="none" vector-effect="non-scaling-stroke" points="67,411 67,410 " />
<polyline fill="none" vector-effect="non-scaling-stroke" points="69,409 68,409 68,409 67,410 " />
<polyline fill="none" vector-effect="non-scaling-stroke" points="69,409 70,409 " />
<polyline fill="none" vector-effect="non-scaling-stroke" points="71,410 71,409 70,409 70,409 " />
<polyline fill="none" vector-effect="non-scaling-stroke" points="71,410 71,411 " />
<polyline fill="none" vector-effect="non-scaling-stroke" points="72,519 76,519 " />
<polyline fill="none" vector-effect="non-scaling-stroke" points="72,306 76,306 " />
<polyline fill="none" vector-effect="non-scaling-stroke" points="45,538 295,538 " />
</g>

<g fill="#008000" fill-opacity="1" stroke="#008000" stroke-opacity="1" stroke-width="1" stroke-linecap="round" stroke-linejoin="round" transform="matrix(1,0,0,1,0,0)"
font-family="Noto Sans" font-size="10" font-weight="400" font-style="normal" 
>
<path vector-effect="non-scaling-stroke" fill-rule="evenodd" d="M45,538 L51,536 L51,539 L45,538"/>
</g>

<g fill="#008000" fill-opacity="1" stroke="#008000" stroke-opacity="1" stroke-width="1" stroke-linecap="round" stroke-linejoin="round" transform="matrix(1,0,0,1,0,0)"
font-family="Noto Sans" font-size="10" font-weight="400" font-style="normal" 
>
<path vector-effect="non-scaling-stroke" fill-rule="evenodd" d="M295,538 L289,539 L289,536 L295,538"/>
</g>

<g fill="none" stroke="#008000" stroke-opacity="1" stroke-width="1" stroke-linecap="round" stroke-linejoin="round" transform="matrix(1,0,0,1,0,0)"
font-family="Noto Sans" font-size="10" font-weight="400" font-style="normal" 
>
<polyline fill="none" vector-effect="non-scaling-stroke" points="164,531 166,530 " />
<polyline fill="none" vector-effect="non-scaling-stroke" points="166,530 166,536 " />
<polyline fill="none" vector-effect="non-scaling-stroke" points="170,530 170,530 169,530 169,530 " />
<polyline fill="none" vector-effect="non-scaling-stroke" points="169,530 168,532 168,534 169,536 " />
<polyline fill="none" vector-effect="non-scaling-stroke" points="169,536 169,536 169,536 170,536 " />
<polyline fill="none" vector-effect="non-scaling-stroke" points="170,536 171,534 171,532 170,530 " />
<polyline fill="none" vector-effect="non-scaling-stroke" points="175,530 175,530 174,530 174,530 173,530 " />
<polyline fill="none" vector-effect="non-scaling-stroke" points="173,530 173,532 173,534 173,536 " />
<polyline fill="none" vector-effect="non-scaling-stroke" points="173,536 174,536 174,536 175,536 " />
<polyline fill="none" vector-effect="non-scaling-stroke" points="175,536 175,534 175,532 175,530 " />
<polyline fill="none" vector-effect="non-scaling-stroke" points="45,527 45,541 " />
<polyline fill="none" vector-effect="non-scaling-stroke" points="295,527 295,541 " />
<polyline fill="none" vector-effect="non-scaling-stroke" points="32,525 32,300 " />
</g>

<g fill="#008000" fill-opacity="1" stroke="#008000" stroke-opacity="1" stroke-width="1" stroke-linecap="round" stroke-linejoin="round" transform="matrix(1,0,0,1,0,0)"
font-family="Noto Sans" font-size="10" font-weight="400" font-style="normal" 
>
<path vector-effect="non-scaling-stroke" fill-rule="evenodd" d="M32,525 L31,519 L34,519 L32,525"/>
</g>

<g fill="#008000" fill-opacity="1" stroke="#008000" stroke-opacity="1" stroke-width="1" stroke-linecap="round" stroke-linejoin="round" transform="matrix(1,0,0,1,0,0)"
font-family="Noto Sans" font-size="10" font-weight="400" font-style="normal" 
>
<path vector-effect="non-scaling-stroke" fill-rule="evenodd" d="M32,300 L34,306 L31,306 L32,300"/>
</g>

<g fill="none" stroke="#008000" stroke-opacity="1" stroke-width="1" stroke-linecap="round" stroke-linejoin="round" transform="matrix(1,0,0,1,0,0)"
font-family="Noto Sans" font-size="10" font-weight="400" font-style="normal" 
>
<polyline fill="none" vector-effect="non-scaling-stroke" points="28,414 28,415 " />
<polyline fill="none" vector-effect="non-scaling-stroke" points="27,416 27,416 28,416 28,415 " />
<polyline fill="none" vector-effect="non-scaling-stroke" points="27,416 26,416 " />
<polyline fill="none" vector-effect="non-scaling-stroke" points="26,414 25,414 25,414 25,415 25,416 25,416 26,416 " />
<polyline fill="none" vector-effect="non-scaling-stroke" points="26,414 28,414 " />
<polyline fill="none" vector-effect="non-scaling-stroke" points="31,416 30,414 29,414 28,414 " />
<polyline fill="none" vector-effect="non-scaling-stroke" points="25,409 25,410 25,410 25,411 " />
<polyline fill="none" vector-effect="non-scaling-stroke" points="25,411 27,411 29,411 31,411 " />
<polyline fill="none" vector-effect="non-scaling-stroke" points="31,411 31,410 31,410 31,410 31,409 " />
<polyline fill="none" vector-effect="non-scaling-stroke" points="31,409 29,409 27,409 25,409 " />
<polyline fill="none" vector-effect="non-scaling-stroke" points="43,525 29,525 " />
<polyline fill="none" vector-effect="non-scaling-stroke" points="43,300 29,300 " />
</g>

<g fill="none" stroke="#ffffff" stroke-opacity="1" stroke-width="1" stroke-linecap="round" stroke-linejoin="round" transform="matrix(1,0,0,1,0,0)"
font-family="Noto Sans" font-size="10" font-weight="400" font-style="normal" 
>
<polyline fill="none" vector-effect="non-scaling-stroke" points="5,398 10,404 " />
<polyline fill="none" vector-effect="non-scaling-stroke" points="10,404 15,398 " />
<polyline fill="none" vector-effect="non-scaling-stroke" points="10,412 10,404 " />
<polyline fill="none" vector-effect="non-scaling-stroke" points="165,560 175,545 " />
<polyline fill="none" vector-effect="non-scaling-stroke" points="165,545 175,560 " />
</g>

<g fill="none" stroke="#008000" stroke-opacity="1" stroke-width="1" stroke-linecap="round" stroke-linejoin="round" transform="matrix(1,0,0,1,0,0)"
font-family="Noto Sans" font-size="10" font-weight="400" font-style="normal" 
>
<polyline fill="none" vector-effect="non-scaling-stroke" points="168,412 168,306 " />
</g>

<g fill="#008000" fill-opacity="1" stroke="#008000" stroke-opacity="1" stroke-width="1" stroke-linecap="round" stroke-linejoin="round" transform="matrix(1,0,0,1,0,0)"
font-family="Noto Sans" font-size="10" font-weight="400" font-style="normal" 
>
<path vector-effect="non-scaling-stroke" fill-rule="evenodd" d="M168,412 L166,406 L169,406 L168,412"/>
</g>

<g fill="#008000" fill-opacity="1" stroke="#008000" stroke-opacity="1" stroke-width="1" stroke-linecap="round" stroke-linejoin="round" transform="matrix(1,0,0,1,0,0)"
font-family="Noto Sans" font-size="10" font-weight="400" font-style="normal" 
>
<path vector-effect="non-scaling-stroke" fill-rule="evenodd" d="M168,306 L169,312 L166,312 L168,306"/>
</g>

<g fill="none" stroke="#008000" stroke-opacity="1" stroke-width="1" stroke-linecap="round" stroke-linejoin="round" transform="matrix(1,0,0,1,0,0)"
font-family="Noto Sans" font-size="10" font-weight="400" font-style="normal" 
>
<polyline fill="none" vector-effect="non-scaling-stroke" points="160,366 165,367 " />
<polyline fill="none" vector-effect="non-scaling-stroke" points="165,367 165,364 " />
<polyline fill="none" vector-effect="non-scaling-stroke" points="163,365 166,365 " />
<polyline fill="none" vector-effect="non-scaling-stroke" points="161,362 160,361 " />
<polyline fill="none" vector-effect="non-scaling-stroke" points="162,359 161,359 160,359 160,359 160,360 160,361 160,361 " />
<polyline fill="none" vector-effect="non-scaling-stroke" points="162,359 166,362 " />
<polyline fill="none" vector-effect="non-scaling-stroke" points="166,362 166,359 " />
<polyline fill="none" vector-effect="non-scaling-stroke" points="167,357 166,356 " />
<polyline fill="none" vector-effect="non-scaling-stroke" points="160,352 160,354 " />
<polyline fill="none" vector-effect="non-scaling-stroke" points="160,354 162,354 " />
<polyline fill="none" vector-effect="non-scaling-stroke" points="162,354 162,353 " />
<polyline fill="none" vector-effect="non-scaling-stroke" points="164,352 163,352 163,352 162,353 " />
<polyline fill="none" vector-effect="non-scaling-stroke" points="164,352 165,352 " />
<polyline fill="none" vector-effect="non-scaling-stroke" points="166,353 166,352 165,352 165,352 " />
<polyline fill="none" vector-effect="non-scaling-stroke" points="166,353 166,354 " />
<polyline fill="none" vector-effect="non-scaling-stroke" points="168,412 164,412 " />
<polyline fill="none" vector-effect="non-scaling-stroke" points="168,306 164,306 " />
<polyline fill="none" vector-effect="non-scaling-stroke" points="170,410 290,410 " />
</g>

<g fill="#008000" fill-opacity="1" stroke="#008000" stroke-opacity="1" stroke-width="1" stroke-linecap="round" stroke-linejoin="round" transform="matrix(1,0,0,1,0,0)"
font-family="Noto Sans" font-size="10" font-weight="400" font-style="normal" 
>
<path vector-effect="non-scaling-stroke" fill-rule="evenodd" d="M170,410 L176,409 L176,411 L170,410"/>
</g>

<g fill="#008000" fill-opacity="1" stroke="#008000" stroke-opacity="1" stroke-width="1" stroke-linecap="round" stroke-linejoin="round" transform="matrix(1,0,0,1,0,0)"
font-family="Noto Sans" font-size="10" font-weight="400" font-style="normal" 
>
<path vector-effect="non-scaling-stroke" fill-rule="evenodd" d="M290,410 L284,411 L284,409 L290,410"/>
</g>

<g fill="none" stroke="#008000" stroke-opacity="1" stroke-width="1" stroke-linecap="round" stroke-linejoin="round" transform="matrix(1,0,0,1,0,0)"
font-family="Noto Sans" font-size="10" font-weight="400" font-style="normal" 
>
<polyline fill="none" vector-effect="non-scaling-stroke" points="227,402 226,407 " />
<polyline fill="none" vector-effect="non-scaling-stroke" points="226,407 229,407 " />
<polyline fill="none" vector-effect="non-scaling-stroke" points="228,406 228,408 " />
<polyline fill="none" vector-effect="non-scaling-stroke" points="234,407 234,406 " />
<polyline fill="none" vector-effect="non-scaling-stroke" points="234,406 234,406 234,405 233,405 232,405 232,406 231,406 " />
<polyline fill="none" vector-effect="non-scaling-stroke" points="231,406 231,407 " />
<polyline fill="none" vector-effect="non-scaling-stroke" points="231,407 232,408 232,408 233,408 233,408 234,408 234,407 " />
<polyline fill="none" vector-effect="non-scaling-stroke" points="233,405 233,405 234,404 234,404 234,403 234,402 233,402 " />
<polyline fill="none" vector-effect="non-scaling-stroke" points="233,402 232,402 232,403 231,403 232,404 232,405 233,405 " />
<polyline fill="none" vector-effect="non-scaling-stroke" points="170,411 170,407 " />
<polyline fill="none" vector-effect="non-scaling-stroke" points="290,411 290,407 " />
</g>

<g fill="none" stroke="#ffffff" stroke-opacity="1" stroke-width="1" stroke-linecap="round" stroke-linejoin="round" transform="matrix(1,0,0,1,0,0)"
font-family="Noto Sans" font-size="10" font-weight="400" font-style="normal" 
>
<polyline fill="none" vector-effect="non-scaling-stroke" points="55,261 48,261 " />
<polyline fill="none" vector-effect="non-scaling-stroke" points="55,261 57,261 59,260 60,258 61,256 61,254 60,252 59,251 57,250 55,250 " />
<polyline fill="none" vector-effect="non-scaling-stroke" points="55,250 48,250 " />
<polyline fill="none" vector-effect="non-scaling-stroke" points="48,250 48,275 " />
<polyline fill="none" vector-effect="non-scaling-stroke" points="48,275 55,275 " />
<polyline fill="none" vector-effect="non-scaling-stroke" points="55,275 57,275 59,274 61,273 62,271 62,269 62,267 62,265 61,263 59,262 57,261 55,261 " />
<polyline fill="none" vector-effect="non-scaling-stroke" points="71,269 71,271 72,273 74,274 76,275 78,275 79,274 81,273 82,271 82,269 " />
<polyline fill="none" vector-effect="non-scaling-stroke" points="71,269 71,264 " />
<polyline fill="none" vector-effect="non-scaling-stroke" points="82,264 81,262 80,260 79,259 77,258 75,258 73,259 72,261 71,262 71,264 " />
<polyline fill="none" vector-effect="non-scaling-stroke" points="82,264 82,269 " />
<polyline fill="none" vector-effect="non-scaling-stroke" points="93,275 93,250 " />
<polyline fill="none" vector-effect="non-scaling-stroke" points="90,258 98,258 " />
<polyline fill="none" vector-effect="non-scaling-stroke" points="110,275 110,250 " />
<polyline fill="none" vector-effect="non-scaling-stroke" points="107,258 115,258 " />
<polyline fill="none" vector-effect="non-scaling-stroke" points="123,269 124,271 125,273 126,274 128,275 130,275 132,274 134,273 134,271 135,269 " />
<polyline fill="none" vector-effect="non-scaling-stroke" points="123,269 123,264 " />
<polyline fill="none" vector-effect="non-scaling-stroke" points="135,264 134,262 133,260 132,259 130,258 128,258 126,259 125,261 124,262 123,264 " />
<polyline fill="none" vector-effect="non-scaling-stroke" points="135,264 135,269 " />
<polyline fill="none" vector-effect="non-scaling-stroke" points="151,275 151,258 " />
<polyline fill="none" vector-effect="non-scaling-stroke" points="143,275 143,258 " />
<polyline fill="none" vector-effect="non-scaling-stroke" points="143,258 155,258 " />
<polyline fill="none" vector-effect="non-scaling-stroke" points="160,262 159,261 158,259 156,258 155,258 " />
<polyline fill="none" vector-effect="non-scaling-stroke" points="160,262 160,275 " />
<polyline fill="none" vector-effect="non-scaling-stroke" points="187,272 188,273 190,274 192,275 194,275 195,275 " />
<polyline fill="none" vector-effect="non-scaling-stroke" points="195,275 197,275 199,274 200,272 201,270 200,268 200,266 198,265 198,264 " />
<polyline fill="none" vector-effect="non-scaling-stroke" points="198,264 190,261 " />
<polyline fill="none" vector-effect="non-scaling-stroke" points="192,250 190,250 189,251 187,253 187,255 187,257 188,259 189,260 190,261 " />
<polyline fill="none" vector-effect="non-scaling-stroke" points="199,251 197,251 195,250 193,250 192,250 " />
<polyline fill="none" vector-effect="non-scaling-stroke" points="209,275 209,258 " />
<polyline fill="none" vector-effect="non-scaling-stroke" points="209,251 209,250 " />
<polyline fill="none" vector-effect="non-scaling-stroke" points="228,250 228,275 " />
<polyline fill="none" vector-effect="non-scaling-stroke" points="228,275 221,275 " />
<polyline fill="none" vector-effect="non-scaling-stroke" points="217,271 218,273 219,274 221,275 " />
<polyline fill="none" vector-effect="non-scaling-stroke" points="217,271 217,262 " />
<polyline fill="none" vector-effect="non-scaling-stroke" points="221,258 219,259 218,260 217,262 " />
<polyline fill="none" vector-effect="non-scaling-stroke" points="221,258 228,258 " />
<polyline fill="none" vector-effect="non-scaling-stroke" points="248,275 241,275 " />
<polyline fill="none" vector-effect="non-scaling-stroke" points="237,271 237,273 238,274 240,275 241,275 " />
<polyline fill="none" vector-effect="non-scaling-stroke" points="237,271 237,264 " />
<polyline fill="none" vector-effect="non-scaling-stroke" points="248,264 247,262 246,260 245,259 243,258 241,258 239,259 238,261 237,262 237,264 " />
<polyline fill="none" vector-effect="non-scaling-stroke" points="248,264 248,267 " />
<polyline fill="none" vector-effect="non-scaling-stroke" points="248,267 237,267 " />
<polyline fill="none" vector-effect="non-scaling-stroke" points="277,268 289,268 " />
<polyline fill="none" vector-effect="non-scaling-stroke" points="275,275 283,250 " />
<polyline fill="none" vector-effect="non-scaling-stroke" points="283,250 292,275 " />
<polyline fill="none" vector-effect="non-scaling-stroke" points="545,525 795,525 " />
<polyline fill="none" vector-effect="non-scaling-stroke" points="795,525 795,300 " />
<polyline fill="none" vector-effect="non-scaling-stroke" points="795,300 545,300 " />
<polyline fill="none" vector-effect="non-scaling-stroke" points="545,300 545,525 " />
<polyline fill="none" vector-effect="non-scaling-stroke" points="578,242 592,242 " />
<polyline fill="none" vector-effect="non-scaling-stroke" points="585,242 585,267 " />
<polyline fill="none" vector-effect="non-scaling-stroke" points="600,261 600,263 601,265 603,266 605,267 607,267 609,266 610,264 611,263 611,261 " />
<polyline fill="none" vector-effect="non-scaling-stroke" points="600,261 600,256 " />
<polyline fill="none" vector-effect="non-scaling-stroke" points="611,256 611,254 610,252 608,251 606,250 604,250 602,251 601,252 600,254 600,256 " />
<polyline fill="none" vector-effect="non-scaling-stroke" points="611,256 611,261 " />
<polyline fill="none" vector-effect="non-scaling-stroke" points="619,275 619,250 " />
<polyline fill="none" vector-effect="non-scaling-stroke" points="619,250 626,250 " />
<polyline fill="none" vector-effect="non-scaling-stroke" points="630,254 630,252 629,251 627,250 626,250 " />
<polyline fill="none" vector-effect="non-scaling-stroke" points="630,254 630,262 " />
<polyline fill="none" vector-effect="non-scaling-stroke" points="626,267 628,266 630,265 630,263 " />
<polyline fill="none" vector-effect="non-scaling-stroke" points="626,267 619,267 " />
<polyline fill="none" vector-effect="non-scaling-stroke" points="658,264 659,265 661,266 663,266 665,267 666,267 " />
<polyline fill="none" vector-effect="non-scaling-stroke" points="666,267 668,266 669,265 671,264 671,262 671,260 670,258 669,257 668,256 " />
<polyline fill="none" vector-effect="non-scaling-stroke" points="668,256 661,252 " />
<polyline fill="none" vector-effect="non-scaling-stroke" points="663,242 661,242 659,243 658,245 658,246 658,248 658,250 660,252 661,252 " />
<polyline fill="none" vector-effect="non-scaling-stroke" points="670,243 668,242 666,242 664,242 663,242 " />
<polyline fill="none" vector-effect="non-scaling-stroke" points="680,267 680,250 " />
<polyline fill="none" vector-effect="non-scaling-stroke" points="680,243 680,242 " />
<polyline fill="none" vector-effect="non-scaling-stroke" points="699,242 699,267 " />
<polyline fill="none" vector-effect="non-scaling-stroke" points="699,267 692,267 " />
<polyline fill="none" vector-effect="non-scaling-stroke" points="688,263 689,264 690,266 692,267 " />
<polyline fill="none" vector-effect="non-scaling-stroke" points="688,262 688,254 " />
<polyline fill="none" vector-effect="non-scaling-stroke" points="692,250 690,250 689,252 688,254 " />
<polyline fill="none" vector-effect="non-scaling-stroke" points="692,250 699,250 " />
<polyline fill="none" vector-effect="non-scaling-stroke" points="719,267 712,267 " />
<polyline fill="none" vector-effect="non-scaling-stroke" points="707,263 708,264 709,266 711,267 712,267 " />
<polyline fill="none" vector-effect="non-scaling-stroke" points="707,262 707,256 " />
<polyline fill="none" vector-effect="non-scaling-stroke" points="719,256 718,254 717,252 716,251 714,250 712,250 710,251 709,252 708,254 707,256 " />
<polyline fill="none" vector-effect="non-scaling-stroke" points="719,256 719,258 " />
<polyline fill="none" vector-effect="non-scaling-stroke" points="719,258 707,258 " />
<polyline fill="none" vector-effect="non-scaling-stroke" points="748,260 760,260 " />
<polyline fill="none" vector-effect="non-scaling-stroke" points="746,267 754,242 " />
<polyline fill="none" vector-effect="non-scaling-stroke" points="754,242 762,267 " />
<polyline fill="none" vector-effect="non-scaling-stroke" points="665,560 675,545 " />
<polyline fill="none" vector-effect="non-scaling-stroke" points="665,545 675,560 " />
</g>

<g fill="none" stroke="#ff00ff" stroke-opacity="1" stroke-width="1" stroke-linecap="round" stroke-linejoin="round" transform="matrix(1,0,0,1,0,0)"
font-family="Noto Sans" font-size="10" font-weight="400" font-style="normal" 
>
<polyline fill="none" vector-effect="non-scaling-stroke" points="551,515 789,515 " />
<polyline fill="none" vector-effect="non-scaling-stroke" points="789,515 789,310 " />
<polyline fill="none" vector-effect="non-scaling-stroke" points="789,310 551,310 " />
<polyline fill="none" vector-effect="non-scaling-stroke" points="551,310 551,515 " />
</g>

<g fill="none" stroke="#008000" stroke-opacity="1" stroke-width="1" stroke-linecap="round" stroke-linejoin="round" transform="matrix(1,0,0,1,0,0)"
font-family="Noto Sans" font-size="10" font-weight="400" font-style="normal" 
>
<polyline fill="none" vector-effect="non-scaling-stroke" points="545,538 795,538 " />
</g>

<g fill="#008000" fill-opacity="1" stroke="#008000" stroke-opacity="1" stroke-width="1" stroke-linecap="round" stroke-linejoin="round" transform="matrix(1,0,0,1,0,0)"
font-family="Noto Sans" font-size="10" font-weight="400" font-style="normal" 
>
<path vector-effect="non-scaling-stroke" fill-rule="evenodd" d="M545,538 L551,536 L551,539 L545,538"/>
</g>

<g fill="#008000" fill-opacity="1" stroke="#008000" stroke-opacity="1" stroke-width="1" stroke-linecap="round" stroke-linejoin="round" transform="matrix(1,0,0,1,0,0)"
font-family="Noto Sans" font-size="10" font-weight="400" font-style="normal" 
>
<path vector-effect="non-scaling-stroke" fill-rule="evenodd" d="M795,538 L789,539 L789,536 L795,538"/>
</g>

<g fill="none" stroke="#008000" stroke-opacity="1" stroke-width="1" stroke-linecap="round" stroke-linejoin="round" transform="matrix(1,0,0,1,0,0)"
font-family="Noto Sans" font-size="10" font-weight="400" font-style="normal" 
>
<polyline fill="none" vector-effect="non-scaling-stroke" points="664,531 666,530 " />
<polyline fill="none" vector-effect="non-scaling-stroke" points="666,530 666,536 " />
<polyline fill="none" vector-effect="non-scaling-stroke" points="670,530 670,530 669,530 669,530 " />
<polyline fill="none" vector-effect="non-scaling-stroke" points="669,530 668,532 668,534 669,536 " />
<polyline fill="none" vector-effect="non-scaling-stroke" points="669,536 669,536 669,536 670,536 " />
<polyline fill="none" vector-effect="non-scaling-stroke" points="670,536 671,534 671,532 670,530 " />
<polyline fill="none" vector-effect="non-scaling-stroke" points="675,530 675,530 674,530 674,530 673,530 " />
<polyline fill="none" vector-effect="non-scaling-stroke" points="673,530 673,532 673,534 673,536 " />
<polyline fill="none" vector-effect="non-scaling-stroke" points="673,536 674,536 674,536 675,536 " />
<polyline fill="none" vector-effect="non-scaling-stroke" points="675,536 675,534 675,532 675,530 " />
<polyline fill="none" vector-effect="non-scaling-stroke" points="545,527 545,541 " />
<polyline fill="none" vector-effect="non-scaling-stroke" points="795,527 795,541 " />
<polyline fill="none" vector-effect="non-scaling-stroke" points="532,300 532,525 " />
</g>

<g fill="#008000" fill-opacity="1" stroke="#008000" stroke-opacity="1" stroke-width="1" stroke-linecap="round" stroke-linejoin="round" transform="matrix(1,0,0,1,0,0)"
font-family="Noto Sans" font-size="10" font-weight="400" font-style="normal" 
>
<path vector-effect="non-scaling-stroke" fill-rule="evenodd" d="M532,300 L534,306 L531,306 L532,300"/>
</g>

<g fill="#008000" fill-opacity="1" stroke="#008000" stroke-opacity="1" stroke-width="1" stroke-linecap="round" stroke-linejoin="round" transform="matrix(1,0,0,1,0,0)"
font-family="Noto Sans" font-size="10" font-weight="400" font-style="normal" 
>
<path vector-effect="non-scaling-stroke" fill-rule="evenodd" d="M532,525 L531,519 L534,519 L532,525"/>
</g>

<g fill="none" stroke="#008000" stroke-opacity="1" stroke-width="1" stroke-linecap="round" stroke-linejoin="round" transform="matrix(1,0,0,1,0,0)"
font-family="Noto Sans" font-size="10" font-weight="400" font-style="normal" 
>
<polyline fill="none" vector-effect="non-scaling-stroke" points="528,414 528,415 " />
<polyline fill="none" vector-effect="non-scaling-stroke" points="527,416 527,416 528,416 528,415 " />
<polyline fill="none" vector-effect="non-scaling-stroke" points="527,416 526,416 " />
<polyline fill="none" vector-effect="non-scaling-stroke" points="526,414 525,414 525,414 525,415 525,416 525,416 526,416 " />
<polyline fill="none" vector-effect="non-scaling-stroke" points="526,414 528,414 " />
<polyline fill="none" vector-effect="non-scaling-stroke" points="531,416 530,414 529,414 528,414 " />
<polyline fill="none" vector-effect="non-scaling-stroke" points="525,409 525,410 525,410 525,411 " />
<polyline fill="none" vector-effect="non-scaling-stroke" points="525,411 527,411 529,411 531,411 " />
<polyline fill="none" vector-effect="non-scaling-stroke" points="531,411 531,410 531,410 531,410 531,409 " />
<polyline fill="none" vector-effect="non-scaling-stroke" points="531,409 529,409 527,409 525,409 " />
<polyline fill="none" vector-effect="non-scaling-stroke" points="543,300 529,300 " />
<polyline fill="none" vector-effect="non-scaling-stroke" points="543,525 529,525 " />
<polyline fill="none" vector-effect="non-scaling-stroke" points="551,500 789,500 " />
</g>

<g fill="#008000" fill-opacity="1" stroke="#008000" stroke-opacity="1" stroke-width="1" stroke-linecap="round" stroke-linejoin="round" transform="matrix(1,0,0,1,0,0)"
font-family="Noto Sans" font-size="10" font-weight="400" font-style="normal" 
>
<path vector-effect="non-scaling-stroke" fill-rule="evenodd" d="M551,500 L558,499 L558,501 L551,500"/>
</g>

<g fill="#008000" fill-opacity="1" stroke="#008000" stroke-opacity="1" stroke-width="1" stroke-linecap="round" stroke-linejoin="round" transform="matrix(1,0,0,1,0,0)"
font-family="Noto Sans" font-size="10" font-weight="400" font-style="normal" 
>
<path vector-effect="non-scaling-stroke" fill-rule="evenodd" d="M789,500 L782,501 L782,499 L789,500"/>
</g>

<g fill="none" stroke="#008000" stroke-opacity="1" stroke-width="1" stroke-linecap="round" stroke-linejoin="round" transform="matrix(1,0,0,1,0,0)"
font-family="Noto Sans" font-size="10" font-weight="400" font-style="normal" 
>
<polyline fill="none" vector-effect="non-scaling-stroke" points="669,496 668,496 " />
<polyline fill="none" vector-effect="non-scaling-stroke" points="666,494 666,495 667,495 667,496 668,496 " />
</g>

<g fill="#008000" fill-opacity="1" stroke="none" transform="matrix(1,0,0,1,0,0)"
font-family="Noto Sans" font-size="10" font-weight="400" font-style="normal" 
>
<circle cx="666" cy="494" r="0.5"/>
</g>

<g fill="none" stroke="#008000" stroke-opacity="1" stroke-width="1" stroke-linecap="round" stroke-linejoin="round" transform="matrix(1,0,0,1,0,0)"
font-family="Noto Sans" font-size="10" font-weight="400" font-style="normal" 
>
<polyline fill="none" vector-effect="non-scaling-stroke" points="669,494 669,493 668,492 668,492 667,492 666,493 666,493 666,494 " />
<polyline fill="none" vector-effect="non-scaling-stroke" points="669,494 669,496 " />
<polyline fill="none" vector-effect="non-scaling-stroke" points="667,498 668,498 669,496 " />
<polyline fill="none" vector-effect="non-scaling-stroke" points="674,492 671,492 " />
<polyline fill="none" vector-effect="non-scaling-stroke" points="671,492 671,495 " />
<polyline fill="none" vector-effect="non-scaling-stroke" points="671,495 672,495 " />
<polyline fill="none" vector-effect="non-scaling-stroke" points="674,496 674,496 673,495 673,495 672,495 " />
<polyline fill="none" vector-effect="non-scaling-stroke" points="674,496 674,497 " />
<polyline fill="none" vector-effect="non-scaling-stroke" points="672,498 673,498 674,498 674,497 " />
<polyline fill="none" vector-effect="non-scaling-stroke" points="672,498 671,498 " />
<polyline fill="none" vector-effect="non-scaling-stroke" points="551,513 551,497 " />
<polyline fill="none" vector-effect="non-scaling-stroke" points="789,513 789,497 " />
<polyline fill="none" vector-effect="non-scaling-stroke" points="670,410 789,410 " />
</g>

<g fill="#008000" fill-opacity="1" stroke="#008000" stroke-opacity="1" stroke-width="1" stroke-linecap="round" stroke-linejoin="round" transform="matrix(1,0,0,1,0,0)"
font-family="Noto Sans" font-size="10" font-weight="400" font-style="normal" 
>
<path vector-effect="non-scaling-stroke" fill-rule="evenodd" d="M670,410 L676,409 L676,411 L670,410"/>
</g>

<g fill="#008000" fill-opacity="1" stroke="#008000" stroke-opacity="1" stroke-width="1" stroke-linecap="round" stroke-linejoin="round" transform="matrix(1,0,0,1,0,0)"
font-family="Noto Sans" font-size="10" font-weight="400" font-style="normal" 
>
<path vector-effect="non-scaling-stroke" fill-rule="evenodd" d="M789,410 L782,411 L782,409 L789,410"/>
</g>

<g fill="none" stroke="#008000" stroke-opacity="1" stroke-width="1" stroke-linecap="round" stroke-linejoin="round" transform="matrix(1,0,0,1,0,0)"
font-family="Noto Sans" font-size="10" font-weight="400" font-style="normal" 
>
<polyline fill="none" vector-effect="non-scaling-stroke" points="723,402 722,407 " />
<polyline fill="none" vector-effect="non-scaling-stroke" points="722,407 725,407 " />
<polyline fill="none" vector-effect="non-scaling-stroke" points="724,406 724,408 " />
<polyline fill="none" vector-effect="non-scaling-stroke" points="727,403 727,402 " />
<polyline fill="none" vector-effect="non-scaling-stroke" points="727,402 730,402 " />
<polyline fill="none" vector-effect="non-scaling-stroke" points="730,402 729,408 " />
<polyline fill="none" vector-effect="non-scaling-stroke" points="732,410 732,408 " />
<polyline fill="none" vector-effect="non-scaling-stroke" points="737,402 734,402 " />
<polyline fill="none" vector-effect="non-scaling-stroke" points="734,402 734,405 " />
<polyline fill="none" vector-effect="non-scaling-stroke" points="734,405 736,405 " />
<polyline fill="none" vector-effect="non-scaling-stroke" points="737,406 737,406 737,405 736,405 " />
<polyline fill="none" vector-effect="non-scaling-stroke" points="737,406 737,407 " />
<polyline fill="none" vector-effect="non-scaling-stroke" points="736,408 736,408 737,408 737,407 " />
<polyline fill="none" vector-effect="non-scaling-stroke" points="736,408 734,408 " />
<polyline fill="none" vector-effect="non-scaling-stroke" points="670,411 670,407 " />
<polyline fill="none" vector-effect="non-scaling-stroke" points="789,411 789,407 " />
<polyline fill="none" vector-effect="non-scaling-stroke" points="668,412 668,310 " />
</g>

<g fill="#008000" fill-opacity="1" stroke="#008000" stroke-opacity="1" stroke-width="1" stroke-linecap="round" stroke-linejoin="round" transform="matrix(1,0,0,1,0,0)"
font-family="Noto Sans" font-size="10" font-weight="400" font-style="normal" 
>
<path vector-effect="non-scaling-stroke" fill-rule="evenodd" d="M668,412 L666,406 L669,406 L668,412"/>
</g>

<g fill="#008000" fill-opacity="1" stroke="#008000" stroke-opacity="1" stroke-width="1" stroke-linecap="round" stroke-linejoin="round" transform="matrix(1,0,0,1,0,0)"
font-family="Noto Sans" font-size="10" font-weight="400" font-style="normal" 
>
<path vector-effect="non-scaling-stroke" fill-rule="evenodd" d="M668,310 L669,316 L666,316 L668,310"/>
</g>

<g fill="none" stroke="#008000" stroke-opacity="1" stroke-width="1" stroke-linecap="round" stroke-linejoin="round" transform="matrix(1,0,0,1,0,0)"
font-family="Noto Sans" font-size="10" font-weight="400" font-style="normal" 
>
<polyline fill="none" vector-effect="non-scaling-stroke" points="660,363 665,365 " />
<polyline fill="none" vector-effect="non-scaling-stroke" points="665,365 665,361 " />
<polyline fill="none" vector-effect="non-scaling-stroke" points="663,362 666,362 " />
<polyline fill="none" vector-effect="non-scaling-stroke" points="661,359 660,358 " />
<polyline fill="none" vector-effect="non-scaling-stroke" points="660,358 666,358 " />
<polyline fill="none" vector-effect="non-scaling-stroke" points="668,412 664,412 " />
<polyline fill="none" vector-effect="non-scaling-stroke" points="668,310 664,310 " />
<polyline fill="none" vector-effect="non-scaling-stroke" points="572,515 572,310 " />
</g>

<g fill="#008000" fill-opacity="1" stroke="#008000" stroke-opacity="1" stroke-width="1" stroke-linecap="round" stroke-linejoin="round" transform="matrix(1,0,0,1,0,0)"
font-family="Noto Sans" font-size="10" font-weight="400" font-style="normal" 
>
<path vector-effect="non-scaling-stroke" fill-rule="evenodd" d="M572,515 L571,509 L574,509 L572,515"/>
</g>

<g fill="#008000" fill-opacity="1" stroke="#008000" stroke-opacity="1" stroke-width="1" stroke-linecap="round" stroke-linejoin="round" transform="matrix(1,0,0,1,0,0)"
font-family="Noto Sans" font-size="10" font-weight="400" font-style="normal" 
>
<path vector-effect="non-scaling-stroke" fill-rule="evenodd" d="M572,310 L574,316 L571,316 L572,310"/>
</g>

<g fill="none" stroke="#008000" stroke-opacity="1" stroke-width="1" stroke-linecap="round" stroke-linejoin="round" transform="matrix(1,0,0,1,0,0)"
font-family="Noto Sans" font-size="10" font-weight="400" font-style="normal" 
>
<polyline fill="none" vector-effect="non-scaling-stroke" points="570,414 569,414 " />
<polyline fill="none" vector-effect="non-scaling-stroke" points="569,414 568,414 568,414 567,415 568,416 568,416 569,416 " />
<polyline fill="none" vector-effect="non-scaling-stroke" points="569,416 570,416 " />
<polyline fill="none" vector-effect="non-scaling-stroke" points="570,416 570,416 571,416 571,415 571,414 570,414 570,414 " />
<polyline fill="none" vector-effect="non-scaling-stroke" points="567,415 567,414 567,414 566,414 565,414 565,414 565,415 " />
<polyline fill="none" vector-effect="non-scaling-stroke" points="565,415 565,416 565,416 566,416 567,416 567,416 567,415 " />
<polyline fill="none" vector-effect="non-scaling-stroke" points="566,411 565,411 " />
<polyline fill="none" vector-effect="non-scaling-stroke" points="567,409 566,409 565,409 565,409 565,410 565,411 565,411 " />
<polyline fill="none" vector-effect="non-scaling-stroke" points="567,409 571,411 " />
<polyline fill="none" vector-effect="non-scaling-stroke" points="571,411 571,409 " />
<polyline fill="none" vector-effect="non-scaling-stroke" points="553,515 576,515 " />
<polyline fill="none" vector-effect="non-scaling-stroke" points="553,310 576,310 " />
</g>
</g>
</svg>
