<?xml version="1.0" encoding="UTF-8" standalone="no"?>
<svg width="282.222mm" height="282.222mm"
 viewBox="0 0 800 800"
 xmlns="http://www.w3.org/2000/svg" xmlns:xlink="http://www.w3.org/1999/xlink"  version="1.2" baseProfile="tiny">
<title>Qt SVG Document</title>
<desc>Generated with Qt</desc>
<defs>
</defs>
<g fill="none" stroke="black" stroke-width="1" fill-rule="evenodd" stroke-linecap="square" stroke-linejoin="bevel" >

<g fill="#000000" fill-opacity="1" stroke="none" transform="matrix(1,0,0,1,0,0)"
font-family="Noto Sans" font-size="10" font-weight="400" font-style="normal" 
>
<rect x="0" y="0" width="800" height="800"/>
</g>

<g fill="none" stroke="#00ff00" stroke-opacity="1" stroke-width="1" stroke-linecap="round" stroke-linejoin="round" transform="matrix(1,0,0,1,0,0)"
font-family="Noto Sans" font-size="10" font-weight="400" font-style="normal" 
>
<polyline fill="none" vector-effect="non-scaling-stroke" points="147,699 595,699 " />
</g>

<g fill="#00ff00" fill-opacity="1" stroke="#00ff00" stroke-opacity="1" stroke-width="1" stroke-linecap="round" stroke-linejoin="round" transform="matrix(1,0,0,1,0,0)"
font-family="Noto Sans" font-size="10" font-weight="400" font-style="normal" 
>
<path vector-effect="non-scaling-stroke" fill-rule="evenodd" d="M147,699 L179,694 L179,704 L147,699"/>
</g>

<g fill="#00ff00" fill-opacity="1" stroke="#00ff00" stroke-opacity="1" stroke-width="1" stroke-linecap="round" stroke-linejoin="round" transform="matrix(1,0,0,1,0,0)"
font-family="Noto Sans" font-size="10" font-weight="400" font-style="normal" 
>
<path vector-effect="non-scaling-stroke" fill-rule="evenodd" d="M595,699 L563,704 L563,694 L595,699"/>
</g>

<g fill="none" stroke="#00ff00" stroke-opacity="1" stroke-width="1" stroke-linecap="round" stroke-linejoin="round" transform="matrix(1,0,0,1,0,0)"
font-family="Noto Sans" font-size="10" font-weight="400" font-style="normal" 
>
<polyline fill="none" vector-effect="non-scaling-stroke" points="354,680 354,678 " />
<polyline fill="none" vector-effect="non-scaling-stroke" points="354,678 360,678 " />
<polyline fill="none" vector-effect="non-scaling-stroke" points="360,678 357,691 " />
<polyline fill="none" vector-effect="non-scaling-stroke" points="364,681 367,678 " />
<polyline fill="none" vector-effect="non-scaling-stroke" points="367,678 367,691 " />
<polyline fill="none" vector-effect="non-scaling-stroke" points="371,691 371,690 " />
<polyline fill="none" vector-effect="non-scaling-stroke" points="375,681 378,678 " />
<polyline fill="none" vector-effect="non-scaling-stroke" points="378,678 378,691 " />
<polyline fill="none" vector-effect="non-scaling-stroke" points="382,681 383,680 " />
<polyline fill="none" vector-effect="non-scaling-stroke" points="387,683 388,681 387,680 387,679 385,679 384,679 383,680 " />
<polyline fill="none" vector-effect="non-scaling-stroke" points="387,683 382,691 " />
<polyline fill="none" vector-effect="non-scaling-stroke" points="382,691 388,691 " />
<polyline fill="none" vector-effect="non-scaling-stroke" points="147,680 147,715 " />
<polyline fill="none" vector-effect="non-scaling-stroke" points="595,680 595,715 " />
<polyline fill="none" vector-effect="non-scaling-stroke" points="686,673 686,236 " />
</g>

<g fill="#00ff00" fill-opacity="1" stroke="#00ff00" stroke-opacity="1" stroke-width="1" stroke-linecap="round" stroke-linejoin="round" transform="matrix(1,0,0,1,0,0)"
font-family="Noto Sans" font-size="10" font-weight="400" font-style="normal" 
>
<path vector-effect="non-scaling-stroke" fill-rule="evenodd" d="M686,673 L680,641 L691,641 L686,673"/>
</g>

<g fill="#00ff00" fill-opacity="1" stroke="#00ff00" stroke-opacity="1" stroke-width="1" stroke-linecap="round" stroke-linejoin="round" transform="matrix(1,0,0,1,0,0)"
font-family="Noto Sans" font-size="10" font-weight="400" font-style="normal" 
>
<path vector-effect="non-scaling-stroke" fill-rule="evenodd" d="M686,236 L691,268 L680,268 L686,236"/>
</g>

<g fill="none" stroke="#00ff00" stroke-opacity="1" stroke-width="1" stroke-linecap="round" stroke-linejoin="round" transform="matrix(1,0,0,1,0,0)"
font-family="Noto Sans" font-size="10" font-weight="400" font-style="normal" 
>
<polyline fill="none" vector-effect="non-scaling-stroke" points="671,474 671,471 " />
<polyline fill="none" vector-effect="non-scaling-stroke" points="673,468 672,469 671,470 671,471 " />
<polyline fill="none" vector-effect="non-scaling-stroke" points="673,468 675,468 " />
<polyline fill="none" vector-effect="non-scaling-stroke" points="675,474 676,474 677,473 678,471 677,470 677,469 675,468 " />
<polyline fill="none" vector-effect="non-scaling-stroke" points="675,474 671,474 " />
<polyline fill="none" vector-effect="non-scaling-stroke" points="665,470 666,472 667,473 669,474 671,474 " />
<polyline fill="none" vector-effect="non-scaling-stroke" points="672,459 672,461 " />
<polyline fill="none" vector-effect="non-scaling-stroke" points="669,464 671,464 672,463 672,462 672,461 " />
<polyline fill="none" vector-effect="non-scaling-stroke" points="669,464 668,464 " />
<polyline fill="none" vector-effect="non-scaling-stroke" points="668,459 667,459 666,460 665,461 665,463 666,464 667,464 668,464 " />
<polyline fill="none" vector-effect="non-scaling-stroke" points="668,459 672,459 " />
<polyline fill="none" vector-effect="non-scaling-stroke" points="678,463 677,461 675,460 674,459 672,459 " />
<polyline fill="none" vector-effect="non-scaling-stroke" points="678,454 677,454 " />
<polyline fill="none" vector-effect="non-scaling-stroke" points="665,450 665,447 " />
<polyline fill="none" vector-effect="non-scaling-stroke" points="671,447 670,446 669,445 668,445 667,445 666,446 665,447 " />
<polyline fill="none" vector-effect="non-scaling-stroke" points="671,449 671,447 " />
<polyline fill="none" vector-effect="non-scaling-stroke" points="673,445 672,445 671,446 671,447 " />
<polyline fill="none" vector-effect="non-scaling-stroke" points="673,445 675,445 " />
<polyline fill="none" vector-effect="non-scaling-stroke" points="678,447 677,446 676,445 675,445 " />
<polyline fill="none" vector-effect="non-scaling-stroke" points="678,447 678,450 " />
<polyline fill="none" vector-effect="non-scaling-stroke" points="665,435 665,440 " />
<polyline fill="none" vector-effect="non-scaling-stroke" points="665,440 671,440 " />
<polyline fill="none" vector-effect="non-scaling-stroke" points="671,440 671,438 " />
<polyline fill="none" vector-effect="non-scaling-stroke" points="673,435 672,435 671,436 671,437 671,438 " />
<polyline fill="none" vector-effect="non-scaling-stroke" points="673,435 675,435 " />
<polyline fill="none" vector-effect="non-scaling-stroke" points="678,438 677,436 676,435 675,435 " />
<polyline fill="none" vector-effect="non-scaling-stroke" points="678,438 678,440 " />
<polyline fill="none" vector-effect="non-scaling-stroke" points="603,673 701,673 " />
<polyline fill="none" vector-effect="non-scaling-stroke" points="603,236 701,236 " />
<polyline fill="none" vector-effect="non-scaling-stroke" points="9,108 733,108 " />
</g>

<g fill="#00ff00" fill-opacity="1" stroke="#00ff00" stroke-opacity="1" stroke-width="1" stroke-linecap="round" stroke-linejoin="round" transform="matrix(1,0,0,1,0,0)"
font-family="Noto Sans" font-size="10" font-weight="400" font-style="normal" 
>
<path vector-effect="non-scaling-stroke" fill-rule="evenodd" d="M9,108 L41,102 L41,113 L9,108"/>
</g>

<g fill="#00ff00" fill-opacity="1" stroke="#00ff00" stroke-opacity="1" stroke-width="1" stroke-linecap="round" stroke-linejoin="round" transform="matrix(1,0,0,1,0,0)"
font-family="Noto Sans" font-size="10" font-weight="400" font-style="normal" 
>
<path vector-effect="non-scaling-stroke" fill-rule="evenodd" d="M733,108 L701,113 L701,102 L733,108"/>
</g>

<g fill="none" stroke="#00ff00" stroke-opacity="1" stroke-width="1" stroke-linecap="round" stroke-linejoin="round" transform="matrix(1,0,0,1,0,0)"
font-family="Noto Sans" font-size="10" font-weight="400" font-style="normal" 
>
<polyline fill="none" vector-effect="non-scaling-stroke" points="361,90 364,87 " />
<polyline fill="none" vector-effect="non-scaling-stroke" points="364,87 364,100 " />
<polyline fill="none" vector-effect="non-scaling-stroke" points="368,90 371,87 " />
<polyline fill="none" vector-effect="non-scaling-stroke" points="371,87 371,100 " />
<polyline fill="none" vector-effect="non-scaling-stroke" points="381,87 375,87 " />
<polyline fill="none" vector-effect="non-scaling-stroke" points="375,87 375,93 " />
<polyline fill="none" vector-effect="non-scaling-stroke" points="375,93 378,93 " />
<polyline fill="none" vector-effect="non-scaling-stroke" points="381,96 380,94 379,93 378,93 " />
<polyline fill="none" vector-effect="non-scaling-stroke" points="381,96 381,97 " />
<polyline fill="none" vector-effect="non-scaling-stroke" points="378,100 379,99 380,98 381,97 " />
<polyline fill="none" vector-effect="non-scaling-stroke" points="378,100 375,100 " />
<polyline fill="none" vector-effect="non-scaling-stroke" points="9,130 9,92 " />
<polyline fill="none" vector-effect="non-scaling-stroke" points="733,130 733,92 " />
</g>

<g fill="none" stroke="#ffffff" stroke-opacity="1" stroke-width="1" stroke-linecap="round" stroke-linejoin="round" transform="matrix(1,0,0,1,0,0)"
font-family="Noto Sans" font-size="10" font-weight="400" font-style="normal" 
>
<polyline fill="none" vector-effect="non-scaling-stroke" points="99,163 99,185 " />
<polyline fill="none" vector-effect="non-scaling-stroke" points="99,185 83,185 " />
<polyline fill="none" vector-effect="non-scaling-stroke" points="83,185 83,224 " />
<polyline fill="none" vector-effect="non-scaling-stroke" points="83,224 99,224 " />
<polyline fill="none" vector-effect="non-scaling-stroke" points="99,224 99,246 " />
<polyline fill="none" vector-effect="non-scaling-stroke" points="99,246 127,673 " />
<polyline fill="none" vector-effect="non-scaling-stroke" points="127,673 147,673 " />
<polyline fill="none" vector-effect="non-scaling-stroke" points="147,673 147,236 " />
<polyline fill="none" vector-effect="non-scaling-stroke" points="147,236 595,236 " />
<polyline fill="none" vector-effect="non-scaling-stroke" points="595,236 595,673 " />
<polyline fill="none" vector-effect="non-scaling-stroke" points="595,673 615,673 " />
<polyline fill="none" vector-effect="non-scaling-stroke" points="615,673 643,246 " />
<polyline fill="none" vector-effect="non-scaling-stroke" points="643,246 643,224 " />
<polyline fill="none" vector-effect="non-scaling-stroke" points="643,224 659,224 " />
<polyline fill="none" vector-effect="non-scaling-stroke" points="659,224 659,185 " />
<polyline fill="none" vector-effect="non-scaling-stroke" points="659,185 643,185 " />
<polyline fill="none" vector-effect="non-scaling-stroke" points="643,185 643,163 " />
<polyline fill="none" vector-effect="non-scaling-stroke" points="643,163 598,163 " />
<polyline fill="none" vector-effect="non-scaling-stroke" points="598,163 598,156 " />
<polyline fill="none" vector-effect="non-scaling-stroke" points="598,156 643,156 " />
<polyline fill="none" vector-effect="non-scaling-stroke" points="643,156 733,144 " />
<polyline fill="none" vector-effect="non-scaling-stroke" points="733,144 733,135 " />
<polyline fill="none" vector-effect="non-scaling-stroke" points="733,135 9,135 " />
<polyline fill="none" vector-effect="non-scaling-stroke" points="9,135 9,144 " />
<polyline fill="none" vector-effect="non-scaling-stroke" points="9,144 99,156 " />
<polyline fill="none" vector-effect="non-scaling-stroke" points="99,156 144,156 " />
<polyline fill="none" vector-effect="non-scaling-stroke" points="144,156 144,163 " />
<polyline fill="none" vector-effect="non-scaling-stroke" points="144,163 99,163 " />
<polyline fill="none" vector-effect="non-scaling-stroke" points="566,173 176,173 " />
<polyline fill="none" vector-effect="non-scaling-stroke" points="176,173 176,156 " />
<polyline fill="none" vector-effect="non-scaling-stroke" points="176,156 566,156 " />
<polyline fill="none" vector-effect="non-scaling-stroke" points="566,156 566,173 " />
</g>

<g fill="none" stroke="#00ff00" stroke-opacity="1" stroke-width="1" stroke-linecap="round" stroke-linejoin="round" transform="matrix(1,0,0,1,0,0)"
font-family="Noto Sans" font-size="10" font-weight="400" font-style="normal" 
>
<polyline fill="none" vector-effect="non-scaling-stroke" points="774,673 774,135 " />
</g>

<g fill="#00ff00" fill-opacity="1" stroke="#00ff00" stroke-opacity="1" stroke-width="1" stroke-linecap="round" stroke-linejoin="round" transform="matrix(1,0,0,1,0,0)"
font-family="Noto Sans" font-size="10" font-weight="400" font-style="normal" 
>
<path vector-effect="non-scaling-stroke" fill-rule="evenodd" d="M774,673 L768,641 L779,641 L774,673"/>
</g>

<g fill="#00ff00" fill-opacity="1" stroke="#00ff00" stroke-opacity="1" stroke-width="1" stroke-linecap="round" stroke-linejoin="round" transform="matrix(1,0,0,1,0,0)"
font-family="Noto Sans" font-size="10" font-weight="400" font-style="normal" 
>
<path vector-effect="non-scaling-stroke" fill-rule="evenodd" d="M774,135 L779,166 L768,166 L774,135"/>
</g>

<g fill="none" stroke="#00ff00" stroke-opacity="1" stroke-width="1" stroke-linecap="round" stroke-linejoin="round" transform="matrix(1,0,0,1,0,0)"
font-family="Noto Sans" font-size="10" font-weight="400" font-style="normal" 
>
<polyline fill="none" vector-effect="non-scaling-stroke" points="763,418 762,418 " />
<polyline fill="none" vector-effect="non-scaling-stroke" points="762,418 760,419 759,420 759,421 759,422 760,423 761,424 762,424 " />
<polyline fill="none" vector-effect="non-scaling-stroke" points="762,424 763,424 " />
<polyline fill="none" vector-effect="non-scaling-stroke" points="763,424 764,424 765,423 766,421 765,420 765,419 763,418 " />
<polyline fill="none" vector-effect="non-scaling-stroke" points="759,421 758,420 757,419 756,418 755,419 754,420 753,421 " />
<polyline fill="none" vector-effect="non-scaling-stroke" points="753,421 753,423 754,424 756,424 757,424 758,423 759,422 759,421 " />
<polyline fill="none" vector-effect="non-scaling-stroke" points="753,409 753,414 " />
<polyline fill="none" vector-effect="non-scaling-stroke" points="753,414 759,414 " />
<polyline fill="none" vector-effect="non-scaling-stroke" points="759,414 759,411 " />
<polyline fill="none" vector-effect="non-scaling-stroke" points="762,409 760,409 759,410 759,411 " />
<polyline fill="none" vector-effect="non-scaling-stroke" points="762,409 763,409 " />
<polyline fill="none" vector-effect="non-scaling-stroke" points="766,411 765,410 764,409 763,409 " />
<polyline fill="none" vector-effect="non-scaling-stroke" points="766,411 766,414 " />
<polyline fill="none" vector-effect="non-scaling-stroke" points="766,404 765,404 " />
<polyline fill="none" vector-effect="non-scaling-stroke" points="753,397 763,400 " />
<polyline fill="none" vector-effect="non-scaling-stroke" points="763,400 763,393 " />
<polyline fill="none" vector-effect="non-scaling-stroke" points="760,395 766,395 " />
<polyline fill="none" vector-effect="non-scaling-stroke" points="753,383 753,389 " />
<polyline fill="none" vector-effect="non-scaling-stroke" points="753,389 759,389 " />
<polyline fill="none" vector-effect="non-scaling-stroke" points="759,389 759,386 " />
<polyline fill="none" vector-effect="non-scaling-stroke" points="762,383 760,384 759,385 759,386 " />
<polyline fill="none" vector-effect="non-scaling-stroke" points="762,383 763,383 " />
<polyline fill="none" vector-effect="non-scaling-stroke" points="766,386 765,385 764,384 763,384 763,383 " />
<polyline fill="none" vector-effect="non-scaling-stroke" points="766,386 766,389 " />
<polyline fill="none" vector-effect="non-scaling-stroke" points="725,673 789,673 " />
<polyline fill="none" vector-effect="non-scaling-stroke" points="741,135 789,135 " />
</g>
</g>
</svg>
