<?xml version="1.0" encoding="UTF-8" standalone="no"?>
<svg width="282.222mm" height="282.222mm"
 viewBox="0 0 800 800"
 xmlns="http://www.w3.org/2000/svg" xmlns:xlink="http://www.w3.org/1999/xlink"  version="1.2" baseProfile="tiny">
<title>Qt SVG Document</title>
<desc>Generated with Qt</desc>
<defs>
</defs>
<g fill="none" stroke="black" stroke-width="1" fill-rule="evenodd" stroke-linecap="square" stroke-linejoin="bevel" >

<g fill="#000000" fill-opacity="1" stroke="none" transform="matrix(1,0,0,1,0,0)"
font-family="Noto Sans" font-size="10" font-weight="400" font-style="normal" 
>
<rect x="0" y="0" width="800" height="800"/>
</g>

<g fill="none" stroke="#ffffff" stroke-opacity="1" stroke-width="1" stroke-linecap="round" stroke-linejoin="round" transform="matrix(1,0,0,1,0,0)"
font-family="Noto Sans" font-size="10" font-weight="400" font-style="normal" 
>
<polyline fill="none" vector-effect="non-scaling-stroke" points="149,215 601,215 " />
<polyline fill="none" vector-effect="non-scaling-stroke" points="601,215 601,717 " />
<polyline fill="none" vector-effect="non-scaling-stroke" points="601,717 625,717 " />
<polyline fill="none" vector-effect="non-scaling-stroke" points="625,717 656,226 " />
<polyline fill="none" vector-effect="non-scaling-stroke" points="656,226 656,215 " />
<polyline fill="none" vector-effect="non-scaling-stroke" points="656,215 663,215 " />
<polyline fill="none" vector-effect="non-scaling-stroke" points="663,215 663,150 " />
<polyline fill="none" vector-effect="non-scaling-stroke" points="663,150 675,150 " />
<polyline fill="none" vector-effect="non-scaling-stroke" points="675,150 675,126 " />
<polyline fill="none" vector-effect="non-scaling-stroke" points="675,126 741,126 " />
<polyline fill="none" vector-effect="non-scaling-stroke" points="741,126 741,102 " />
<polyline fill="none" vector-effect="non-scaling-stroke" points="741,102 9,102 " />
<polyline fill="none" vector-effect="non-scaling-stroke" points="9,102 9,126 " />
<polyline fill="none" vector-effect="non-scaling-stroke" points="9,126 75,126 " />
<polyline fill="none" vector-effect="non-scaling-stroke" points="75,126 75,150 " />
<polyline fill="none" vector-effect="non-scaling-stroke" points="75,150 87,150 " />
<polyline fill="none" vector-effect="non-scaling-stroke" points="87,150 87,215 " />
<polyline fill="none" vector-effect="non-scaling-stroke" points="87,215 94,215 " />
<polyline fill="none" vector-effect="non-scaling-stroke" points="94,215 94,226 " />
<polyline fill="none" vector-effect="non-scaling-stroke" points="94,226 125,717 " />
<polyline fill="none" vector-effect="non-scaling-stroke" points="125,717 149,717 " />
<polyline fill="none" vector-effect="non-scaling-stroke" points="149,717 149,215 " />
</g>

<g fill="none" stroke="#00ff00" stroke-opacity="1" stroke-width="1" stroke-linecap="round" stroke-linejoin="round" transform="matrix(1,0,0,1,0,0)"
font-family="Noto Sans" font-size="10" font-weight="400" font-style="normal" 
>
<polyline fill="none" vector-effect="non-scaling-stroke" points="149,747 601,747 " />
</g>

<g fill="#00ff00" fill-opacity="1" stroke="#00ff00" stroke-opacity="1" stroke-width="1" stroke-linecap="round" stroke-linejoin="round" transform="matrix(1,0,0,1,0,0)"
font-family="Noto Sans" font-size="10" font-weight="400" font-style="normal" 
>
<path vector-effect="non-scaling-stroke" fill-rule="evenodd" d="M149,747 L167,744 L167,750 L149,747"/>
</g>

<g fill="#00ff00" fill-opacity="1" stroke="#00ff00" stroke-opacity="1" stroke-width="1" stroke-linecap="round" stroke-linejoin="round" transform="matrix(1,0,0,1,0,0)"
font-family="Noto Sans" font-size="10" font-weight="400" font-style="normal" 
>
<path vector-effect="non-scaling-stroke" fill-rule="evenodd" d="M601,747 L583,750 L583,744 L601,747"/>
</g>

<g fill="none" stroke="#00ff00" stroke-opacity="1" stroke-width="1" stroke-linecap="round" stroke-linejoin="round" transform="matrix(1,0,0,1,0,0)"
font-family="Noto Sans" font-size="10" font-weight="400" font-style="normal" 
>
<polyline fill="none" vector-effect="non-scaling-stroke" points="334,728 334,727 " />
<polyline fill="none" vector-effect="non-scaling-stroke" points="341,731 342,729 341,727 340,726 338,725 336,725 335,726 334,727 " />
<polyline fill="none" vector-effect="non-scaling-stroke" points="341,731 334,743 " />
<polyline fill="none" vector-effect="non-scaling-stroke" points="334,743 342,743 " />
<polyline fill="none" vector-effect="non-scaling-stroke" points="352,725 348,739 " />
<polyline fill="none" vector-effect="non-scaling-stroke" points="348,739 358,739 " />
<polyline fill="none" vector-effect="non-scaling-stroke" points="355,735 355,743 " />
<polyline fill="none" vector-effect="non-scaling-stroke" points="364,743 364,742 " />
<polyline fill="none" vector-effect="non-scaling-stroke" points="378,725 370,725 " />
<polyline fill="none" vector-effect="non-scaling-stroke" points="370,725 370,733 " />
<polyline fill="none" vector-effect="non-scaling-stroke" points="370,733 374,733 " />
<polyline fill="none" vector-effect="non-scaling-stroke" points="378,737 378,735 376,734 374,733 " />
<polyline fill="none" vector-effect="non-scaling-stroke" points="378,737 378,739 " />
<polyline fill="none" vector-effect="non-scaling-stroke" points="374,743 376,742 377,741 378,739 " />
<polyline fill="none" vector-effect="non-scaling-stroke" points="374,743 370,743 " />
<polyline fill="none" vector-effect="non-scaling-stroke" points="392,725 384,725 " />
<polyline fill="none" vector-effect="non-scaling-stroke" points="384,725 384,733 " />
<polyline fill="none" vector-effect="non-scaling-stroke" points="384,733 388,733 " />
<polyline fill="none" vector-effect="non-scaling-stroke" points="392,737 392,735 390,734 388,733 " />
<polyline fill="none" vector-effect="non-scaling-stroke" points="392,737 392,739 " />
<polyline fill="none" vector-effect="non-scaling-stroke" points="388,743 390,742 391,741 392,739 " />
<polyline fill="none" vector-effect="non-scaling-stroke" points="388,743 384,743 " />
<polyline fill="none" vector-effect="non-scaling-stroke" points="406,735 402,735 " />
<polyline fill="none" vector-effect="non-scaling-stroke" points="398,731 399,733 400,734 402,735 " />
<polyline fill="none" vector-effect="non-scaling-stroke" points="398,731 398,729 " />
<polyline fill="none" vector-effect="non-scaling-stroke" points="406,729 406,727 404,725 402,725 401,725 399,726 398,728 398,729 " />
<polyline fill="none" vector-effect="non-scaling-stroke" points="406,729 406,735 " />
<polyline fill="none" vector-effect="non-scaling-stroke" points="400,743 402,742 404,741 405,739 406,738 406,736 406,735 " />
<polyline fill="none" vector-effect="non-scaling-stroke" points="412,729 416,725 " />
<polyline fill="none" vector-effect="non-scaling-stroke" points="416,725 416,743 " />
<polyline fill="none" vector-effect="non-scaling-stroke" points="149,722 149,757 " />
<polyline fill="none" vector-effect="non-scaling-stroke" points="601,722 601,757 " />
<polyline fill="none" vector-effect="non-scaling-stroke" points="9,67 741,67 " />
</g>

<g fill="#00ff00" fill-opacity="1" stroke="#00ff00" stroke-opacity="1" stroke-width="1" stroke-linecap="round" stroke-linejoin="round" transform="matrix(1,0,0,1,0,0)"
font-family="Noto Sans" font-size="10" font-weight="400" font-style="normal" 
>
<path vector-effect="non-scaling-stroke" fill-rule="evenodd" d="M9,67 L28,64 L28,70 L9,67"/>
</g>

<g fill="#00ff00" fill-opacity="1" stroke="#00ff00" stroke-opacity="1" stroke-width="1" stroke-linecap="round" stroke-linejoin="round" transform="matrix(1,0,0,1,0,0)"
font-family="Noto Sans" font-size="10" font-weight="400" font-style="normal" 
>
<path vector-effect="non-scaling-stroke" fill-rule="evenodd" d="M741,67 L722,70 L722,64 L741,67"/>
</g>

<g fill="none" stroke="#00ff00" stroke-opacity="1" stroke-width="1" stroke-linecap="round" stroke-linejoin="round" transform="matrix(1,0,0,1,0,0)"
font-family="Noto Sans" font-size="10" font-weight="400" font-style="normal" 
>
<polyline fill="none" vector-effect="non-scaling-stroke" points="333,44 337,44 " />
<polyline fill="none" vector-effect="non-scaling-stroke" points="337,52 339,52 340,51 341,49 340,47 339,45 337,44 " />
<polyline fill="none" vector-effect="non-scaling-stroke" points="335,52 337,52 " />
<polyline fill="none" vector-effect="non-scaling-stroke" points="341,56 340,55 339,53 337,52 " />
<polyline fill="none" vector-effect="non-scaling-stroke" points="341,56 341,58 " />
<polyline fill="none" vector-effect="non-scaling-stroke" points="337,62 339,62 340,61 341,59 341,58 " />
<polyline fill="none" vector-effect="non-scaling-stroke" points="337,62 333,62 " />
<polyline fill="none" vector-effect="non-scaling-stroke" points="355,54 351,54 " />
<polyline fill="none" vector-effect="non-scaling-stroke" points="347,50 347,52 349,54 351,54 " />
<polyline fill="none" vector-effect="non-scaling-stroke" points="347,50 347,48 " />
<polyline fill="none" vector-effect="non-scaling-stroke" points="355,48 354,46 353,45 351,44 349,45 348,46 347,48 " />
<polyline fill="none" vector-effect="non-scaling-stroke" points="355,48 355,54 " />
<polyline fill="none" vector-effect="non-scaling-stroke" points="349,62 351,62 352,61 354,59 354,57 355,55 355,54 " />
<polyline fill="none" vector-effect="non-scaling-stroke" points="361,62 361,61 " />
<polyline fill="none" vector-effect="non-scaling-stroke" points="367,46 367,44 " />
<polyline fill="none" vector-effect="non-scaling-stroke" points="367,44 375,44 " />
<polyline fill="none" vector-effect="non-scaling-stroke" points="375,44 371,62 " />
<polyline fill="none" vector-effect="non-scaling-stroke" points="381,52 385,52 " />
<polyline fill="none" vector-effect="non-scaling-stroke" points="389,56 389,55 387,53 385,52 " />
<polyline fill="none" vector-effect="non-scaling-stroke" points="389,56 389,58 " />
<polyline fill="none" vector-effect="non-scaling-stroke" points="381,58 382,60 383,62 385,62 387,62 388,61 389,59 389,58 " />
<polyline fill="none" vector-effect="non-scaling-stroke" points="381,58 381,52 " />
<polyline fill="none" vector-effect="non-scaling-stroke" points="387,44 385,45 384,46 382,48 381,50 381,52 " />
<polyline fill="none" vector-effect="non-scaling-stroke" points="395,44 399,44 " />
<polyline fill="none" vector-effect="non-scaling-stroke" points="399,52 401,52 403,51 403,49 403,47 402,45 400,44 399,44 " />
<polyline fill="none" vector-effect="non-scaling-stroke" points="397,52 399,52 " />
<polyline fill="none" vector-effect="non-scaling-stroke" points="403,56 403,55 401,53 399,52 " />
<polyline fill="none" vector-effect="non-scaling-stroke" points="403,56 403,58 " />
<polyline fill="none" vector-effect="non-scaling-stroke" points="399,62 401,62 403,61 403,59 403,58 " />
<polyline fill="none" vector-effect="non-scaling-stroke" points="399,62 395,62 " />
<polyline fill="none" vector-effect="non-scaling-stroke" points="417,58 417,56 " />
<polyline fill="none" vector-effect="non-scaling-stroke" points="417,56 417,55 415,53 414,52 412,53 410,54 409,56 " />
<polyline fill="none" vector-effect="non-scaling-stroke" points="409,56 409,58 " />
<polyline fill="none" vector-effect="non-scaling-stroke" points="409,58 410,60 411,62 413,62 415,62 416,61 417,59 417,58 " />
<polyline fill="none" vector-effect="non-scaling-stroke" points="413,52 415,52 417,51 417,49 417,47 416,45 414,44 413,44 " />
<polyline fill="none" vector-effect="non-scaling-stroke" points="413,44 411,45 410,46 409,48 410,50 411,52 413,52 " />
<polyline fill="none" vector-effect="non-scaling-stroke" points="9,98 9,58 " />
<polyline fill="none" vector-effect="non-scaling-stroke" points="741,98 741,58 " />
<polyline fill="none" vector-effect="non-scaling-stroke" points="715,717 715,215 " />
</g>

<g fill="#00ff00" fill-opacity="1" stroke="#00ff00" stroke-opacity="1" stroke-width="1" stroke-linecap="round" stroke-linejoin="round" transform="matrix(1,0,0,1,0,0)"
font-family="Noto Sans" font-size="10" font-weight="400" font-style="normal" 
>
<path vector-effect="non-scaling-stroke" fill-rule="evenodd" d="M715,717 L712,699 L718,699 L715,717"/>
</g>

<g fill="#00ff00" fill-opacity="1" stroke="#00ff00" stroke-opacity="1" stroke-width="1" stroke-linecap="round" stroke-linejoin="round" transform="matrix(1,0,0,1,0,0)"
font-family="Noto Sans" font-size="10" font-weight="400" font-style="normal" 
>
<path vector-effect="non-scaling-stroke" fill-rule="evenodd" d="M715,215 L718,233 L712,233 L715,215"/>
</g>

<g fill="none" stroke="#00ff00" stroke-opacity="1" stroke-width="1" stroke-linecap="round" stroke-linejoin="round" transform="matrix(1,0,0,1,0,0)"
font-family="Noto Sans" font-size="10" font-weight="400" font-style="normal" 
>
<polyline fill="none" vector-effect="non-scaling-stroke" points="696,506 695,506 " />
<polyline fill="none" vector-effect="non-scaling-stroke" points="699,499 697,498 695,499 693,500 693,502 693,504 694,505 695,506 " />
<polyline fill="none" vector-effect="non-scaling-stroke" points="699,499 711,506 " />
<polyline fill="none" vector-effect="non-scaling-stroke" points="711,506 711,498 " />
<polyline fill="none" vector-effect="non-scaling-stroke" points="695,492 693,492 " />
<polyline fill="none" vector-effect="non-scaling-stroke" points="693,492 693,484 " />
<polyline fill="none" vector-effect="non-scaling-stroke" points="693,484 711,488 " />
<polyline fill="none" vector-effect="non-scaling-stroke" points="711,478 710,478 " />
<polyline fill="none" vector-effect="non-scaling-stroke" points="693,472 693,468 " />
<polyline fill="none" vector-effect="non-scaling-stroke" points="701,468 700,466 699,465 697,464 695,464 693,466 693,467 693,468 " />
<polyline fill="none" vector-effect="non-scaling-stroke" points="701,470 701,468 " />
<polyline fill="none" vector-effect="non-scaling-stroke" points="705,464 703,465 701,466 701,468 " />
<polyline fill="none" vector-effect="non-scaling-stroke" points="705,464 707,464 " />
<polyline fill="none" vector-effect="non-scaling-stroke" points="711,468 710,466 709,465 707,464 " />
<polyline fill="none" vector-effect="non-scaling-stroke" points="711,468 711,472 " />
<polyline fill="none" vector-effect="non-scaling-stroke" points="694,452 693,453 693,454 693,455 694,456 " />
<polyline fill="none" vector-effect="non-scaling-stroke" points="694,456 695,457 697,457 699,458 701,458 703,458 705,458 707,457 709,456 710,456 " />
<polyline fill="none" vector-effect="non-scaling-stroke" points="710,456 710,455 711,454 710,453 710,452 " />
<polyline fill="none" vector-effect="non-scaling-stroke" points="710,452 708,451 706,451 704,450 702,450 700,450 698,450 696,451 694,452 " />
<polyline fill="none" vector-effect="non-scaling-stroke" points="693,444 693,440 " />
<polyline fill="none" vector-effect="non-scaling-stroke" points="701,440 700,438 699,437 697,436 695,436 693,437 693,439 693,440 " />
<polyline fill="none" vector-effect="non-scaling-stroke" points="701,442 701,440 " />
<polyline fill="none" vector-effect="non-scaling-stroke" points="705,436 703,436 701,438 701,440 " />
<polyline fill="none" vector-effect="non-scaling-stroke" points="705,436 707,436 " />
<polyline fill="none" vector-effect="non-scaling-stroke" points="711,440 710,438 709,437 707,436 " />
<polyline fill="none" vector-effect="non-scaling-stroke" points="711,440 711,444 " />
<polyline fill="none" vector-effect="non-scaling-stroke" points="697,430 693,426 " />
<polyline fill="none" vector-effect="non-scaling-stroke" points="693,426 711,426 " />
<polyline fill="none" vector-effect="non-scaling-stroke" points="605,717 724,717 " />
<polyline fill="none" vector-effect="non-scaling-stroke" points="605,215 724,215 " />
<polyline fill="none" vector-effect="non-scaling-stroke" points="780,717 780,102 " />
</g>

<g fill="#00ff00" fill-opacity="1" stroke="#00ff00" stroke-opacity="1" stroke-width="1" stroke-linecap="round" stroke-linejoin="round" transform="matrix(1,0,0,1,0,0)"
font-family="Noto Sans" font-size="10" font-weight="400" font-style="normal" 
>
<path vector-effect="non-scaling-stroke" fill-rule="evenodd" d="M780,717 L777,699 L783,699 L780,717"/>
</g>

<g fill="#00ff00" fill-opacity="1" stroke="#00ff00" stroke-opacity="1" stroke-width="1" stroke-linecap="round" stroke-linejoin="round" transform="matrix(1,0,0,1,0,0)"
font-family="Noto Sans" font-size="10" font-weight="400" font-style="normal" 
>
<path vector-effect="non-scaling-stroke" fill-rule="evenodd" d="M780,102 L783,120 L777,120 L780,102"/>
</g>

<g fill="none" stroke="#00ff00" stroke-opacity="1" stroke-width="1" stroke-linecap="round" stroke-linejoin="round" transform="matrix(1,0,0,1,0,0)"
font-family="Noto Sans" font-size="10" font-weight="400" font-style="normal" 
>
<polyline fill="none" vector-effect="non-scaling-stroke" points="758,455 758,451 " />
<polyline fill="none" vector-effect="non-scaling-stroke" points="766,451 765,449 764,447 762,447 760,447 759,448 758,450 758,451 " />
<polyline fill="none" vector-effect="non-scaling-stroke" points="766,453 766,451 " />
<polyline fill="none" vector-effect="non-scaling-stroke" points="770,447 768,447 766,449 766,450 766,451 " />
<polyline fill="none" vector-effect="non-scaling-stroke" points="770,447 772,447 " />
<polyline fill="none" vector-effect="non-scaling-stroke" points="776,451 775,449 774,447 772,447 " />
<polyline fill="none" vector-effect="non-scaling-stroke" points="776,451 776,455 " />
<polyline fill="none" vector-effect="non-scaling-stroke" points="758,441 758,437 " />
<polyline fill="none" vector-effect="non-scaling-stroke" points="766,437 765,435 764,433 762,433 760,433 759,434 758,436 758,437 " />
<polyline fill="none" vector-effect="non-scaling-stroke" points="766,439 766,437 " />
<polyline fill="none" vector-effect="non-scaling-stroke" points="770,433 768,433 766,435 766,436 766,437 " />
<polyline fill="none" vector-effect="non-scaling-stroke" points="770,433 772,433 " />
<polyline fill="none" vector-effect="non-scaling-stroke" points="776,437 775,435 774,433 772,433 " />
<polyline fill="none" vector-effect="non-scaling-stroke" points="776,437 776,441 " />
<polyline fill="none" vector-effect="non-scaling-stroke" points="776,427 775,427 " />
<polyline fill="none" vector-effect="non-scaling-stroke" points="758,417 772,421 " />
<polyline fill="none" vector-effect="non-scaling-stroke" points="772,421 772,411 " />
<polyline fill="none" vector-effect="non-scaling-stroke" points="768,414 776,414 " />
<polyline fill="none" vector-effect="non-scaling-stroke" points="758,401 772,405 " />
<polyline fill="none" vector-effect="non-scaling-stroke" points="772,405 772,395 " />
<polyline fill="none" vector-effect="non-scaling-stroke" points="768,398 776,398 " />
<polyline fill="none" vector-effect="non-scaling-stroke" points="758,384 772,388 " />
<polyline fill="none" vector-effect="non-scaling-stroke" points="772,388 772,378 " />
<polyline fill="none" vector-effect="non-scaling-stroke" points="768,381 776,381 " />
<polyline fill="none" vector-effect="non-scaling-stroke" points="768,364 768,368 " />
<polyline fill="none" vector-effect="non-scaling-stroke" points="764,372 766,372 767,371 768,369 768,368 " />
<polyline fill="none" vector-effect="non-scaling-stroke" points="764,372 762,372 " />
<polyline fill="none" vector-effect="non-scaling-stroke" points="762,364 760,365 758,366 758,368 758,370 759,372 761,372 762,372 " />
<polyline fill="none" vector-effect="non-scaling-stroke" points="762,364 768,364 " />
<polyline fill="none" vector-effect="non-scaling-stroke" points="776,370 775,369 774,367 772,366 771,365 769,364 768,364 " />
<polyline fill="none" vector-effect="non-scaling-stroke" points="732,717 789,717 " />
<polyline fill="none" vector-effect="non-scaling-stroke" points="745,102 789,102 " />
</g>
</g>
</svg>
