<?xml version="1.0" encoding="UTF-8" standalone="no"?>
<svg width="282.222mm" height="282.222mm"
 viewBox="0 0 800 800"
 xmlns="http://www.w3.org/2000/svg" xmlns:xlink="http://www.w3.org/1999/xlink"  version="1.2" baseProfile="tiny">
<title>Qt SVG Document</title>
<desc>Generated with Qt</desc>
<defs>
</defs>
<g fill="none" stroke="black" stroke-width="1" fill-rule="evenodd" stroke-linecap="square" stroke-linejoin="bevel" >

<g fill="#000000" fill-opacity="1" stroke="none" transform="matrix(1,0,0,1,0,0)"
font-family="Noto Sans" font-size="10" font-weight="400" font-style="normal" 
>
<rect x="0" y="0" width="800" height="800"/>
</g>

<g fill="none" stroke="#ffffff" stroke-opacity="1" stroke-width="1" stroke-linecap="round" stroke-linejoin="round" transform="matrix(1,0,0,1,0,0)"
font-family="Noto Sans" font-size="10" font-weight="400" font-style="normal" 
>
<polyline fill="none" vector-effect="non-scaling-stroke" points="151,235 611,235 " />
<polyline fill="none" vector-effect="non-scaling-stroke" points="611,235 611,683 " />
<polyline fill="none" vector-effect="non-scaling-stroke" points="611,683 632,683 " />
<polyline fill="none" vector-effect="non-scaling-stroke" points="632,683 660,245 " />
<polyline fill="none" vector-effect="non-scaling-stroke" points="660,245 660,223 " />
<polyline fill="none" vector-effect="non-scaling-stroke" points="660,223 676,223 " />
<polyline fill="none" vector-effect="non-scaling-stroke" points="676,223 676,182 " />
<polyline fill="none" vector-effect="non-scaling-stroke" points="676,182 660,182 " />
<polyline fill="none" vector-effect="non-scaling-stroke" points="660,182 660,160 " />
<polyline fill="none" vector-effect="non-scaling-stroke" points="660,160 611,160 " />
<polyline fill="none" vector-effect="non-scaling-stroke" points="611,160 611,156 " />
<polyline fill="none" vector-effect="non-scaling-stroke" points="611,156 660,156 " />
<polyline fill="none" vector-effect="non-scaling-stroke" points="660,156 752,143 " />
<polyline fill="none" vector-effect="non-scaling-stroke" points="752,143 752,134 " />
<polyline fill="none" vector-effect="non-scaling-stroke" points="752,134 10,134 " />
<polyline fill="none" vector-effect="non-scaling-stroke" points="10,134 10,143 " />
<polyline fill="none" vector-effect="non-scaling-stroke" points="10,143 102,156 " />
<polyline fill="none" vector-effect="non-scaling-stroke" points="102,156 151,156 " />
<polyline fill="none" vector-effect="non-scaling-stroke" points="151,156 151,160 " />
<polyline fill="none" vector-effect="non-scaling-stroke" points="151,160 102,160 " />
<polyline fill="none" vector-effect="non-scaling-stroke" points="102,160 102,182 " />
<polyline fill="none" vector-effect="non-scaling-stroke" points="102,182 86,182 " />
<polyline fill="none" vector-effect="non-scaling-stroke" points="86,182 86,223 " />
<polyline fill="none" vector-effect="non-scaling-stroke" points="86,223 102,223 " />
<polyline fill="none" vector-effect="non-scaling-stroke" points="102,223 102,245 " />
<polyline fill="none" vector-effect="non-scaling-stroke" points="102,245 130,683 " />
<polyline fill="none" vector-effect="non-scaling-stroke" points="130,683 151,683 " />
<polyline fill="none" vector-effect="non-scaling-stroke" points="151,683 151,235 " />
<polyline fill="none" vector-effect="non-scaling-stroke" points="184,170 184,156 " />
<polyline fill="none" vector-effect="non-scaling-stroke" points="184,156 578,156 " />
<polyline fill="none" vector-effect="non-scaling-stroke" points="578,156 578,170 " />
<polyline fill="none" vector-effect="non-scaling-stroke" points="578,170 184,170 " />
</g>

<g fill="none" stroke="#00ff00" stroke-opacity="1" stroke-width="1" stroke-linecap="round" stroke-linejoin="round" transform="matrix(1,0,0,1,0,0)"
font-family="Noto Sans" font-size="10" font-weight="400" font-style="normal" 
>
<polyline fill="none" vector-effect="non-scaling-stroke" points="151,710 611,710 " />
</g>

<g fill="#00ff00" fill-opacity="1" stroke="#00ff00" stroke-opacity="1" stroke-width="1" stroke-linecap="round" stroke-linejoin="round" transform="matrix(1,0,0,1,0,0)"
font-family="Noto Sans" font-size="10" font-weight="400" font-style="normal" 
>
<path vector-effect="non-scaling-stroke" fill-rule="evenodd" d="M151,710 L167,707 L167,713 L151,710"/>
</g>

<g fill="#00ff00" fill-opacity="1" stroke="#00ff00" stroke-opacity="1" stroke-width="1" stroke-linecap="round" stroke-linejoin="round" transform="matrix(1,0,0,1,0,0)"
font-family="Noto Sans" font-size="10" font-weight="400" font-style="normal" 
>
<path vector-effect="non-scaling-stroke" fill-rule="evenodd" d="M611,710 L595,713 L595,707 L611,710"/>
</g>

<g fill="none" stroke="#00ff00" stroke-opacity="1" stroke-width="1" stroke-linecap="round" stroke-linejoin="round" transform="matrix(1,0,0,1,0,0)"
font-family="Noto Sans" font-size="10" font-weight="400" font-style="normal" 
>
<polyline fill="none" vector-effect="non-scaling-stroke" points="343,693 344,692 " />
<polyline fill="none" vector-effect="non-scaling-stroke" points="350,695 350,694 350,692 349,690 347,690 345,690 344,691 344,692 " />
<polyline fill="none" vector-effect="non-scaling-stroke" points="350,695 343,706 " />
<polyline fill="none" vector-effect="non-scaling-stroke" points="343,706 350,706 " />
<polyline fill="none" vector-effect="non-scaling-stroke" points="363,702 363,701 " />
<polyline fill="none" vector-effect="non-scaling-stroke" points="363,701 363,699 361,698 360,697 358,697 357,698 356,700 356,701 " />
<polyline fill="none" vector-effect="non-scaling-stroke" points="356,701 356,702 " />
<polyline fill="none" vector-effect="non-scaling-stroke" points="356,702 356,704 358,705 359,706 361,706 362,705 363,703 363,702 " />
<polyline fill="none" vector-effect="non-scaling-stroke" points="359,697 361,697 362,695 363,694 363,692 362,691 360,690 359,690 " />
<polyline fill="none" vector-effect="non-scaling-stroke" points="359,690 358,690 356,692 356,693 356,695 357,696 359,697 " />
<polyline fill="none" vector-effect="non-scaling-stroke" points="368,706 368,705 " />
<polyline fill="none" vector-effect="non-scaling-stroke" points="379,691 378,690 377,690 376,690 376,691 " />
<polyline fill="none" vector-effect="non-scaling-stroke" points="376,691 375,693 374,695 374,696 374,698 374,700 374,702 375,704 376,705 " />
<polyline fill="none" vector-effect="non-scaling-stroke" points="376,705 376,706 378,706 379,706 379,705 " />
<polyline fill="none" vector-effect="non-scaling-stroke" points="379,705 380,703 381,701 381,699 381,697 381,695 380,693 380,692 379,691 " />
<polyline fill="none" vector-effect="non-scaling-stroke" points="392,691 391,690 390,690 389,690 388,691 " />
<polyline fill="none" vector-effect="non-scaling-stroke" points="388,691 387,693 387,695 386,696 386,698 387,700 387,702 388,704 388,705 " />
<polyline fill="none" vector-effect="non-scaling-stroke" points="388,705 389,706 390,706 391,706 392,705 " />
<polyline fill="none" vector-effect="non-scaling-stroke" points="392,705 393,703 393,701 393,699 394,697 393,695 393,693 392,692 392,691 " />
<polyline fill="none" vector-effect="non-scaling-stroke" points="404,691 403,690 402,690 401,690 401,691 " />
<polyline fill="none" vector-effect="non-scaling-stroke" points="401,691 400,693 399,695 399,696 399,698 399,700 400,702 400,704 401,705 " />
<polyline fill="none" vector-effect="non-scaling-stroke" points="401,705 402,706 403,706 404,706 404,705 " />
<polyline fill="none" vector-effect="non-scaling-stroke" points="404,705 405,703 406,701 406,699 406,697 406,695 405,693 405,692 404,691 " />
<polyline fill="none" vector-effect="non-scaling-stroke" points="417,691 416,690 415,690 414,690 413,691 " />
<polyline fill="none" vector-effect="non-scaling-stroke" points="413,691 412,693 412,695 412,696 412,698 412,700 412,702 413,704 413,705 " />
<polyline fill="none" vector-effect="non-scaling-stroke" points="413,705 414,706 415,706 416,706 417,705 " />
<polyline fill="none" vector-effect="non-scaling-stroke" points="417,705 418,703 418,701 419,699 419,697 418,695 418,693 417,692 417,691 " />
<polyline fill="none" vector-effect="non-scaling-stroke" points="151,687 151,718 " />
<polyline fill="none" vector-effect="non-scaling-stroke" points="611,687 611,718 " />
<polyline fill="none" vector-effect="non-scaling-stroke" points="704,683 704,235 " />
</g>

<g fill="#00ff00" fill-opacity="1" stroke="#00ff00" stroke-opacity="1" stroke-width="1" stroke-linecap="round" stroke-linejoin="round" transform="matrix(1,0,0,1,0,0)"
font-family="Noto Sans" font-size="10" font-weight="400" font-style="normal" 
>
<path vector-effect="non-scaling-stroke" fill-rule="evenodd" d="M704,683 L701,667 L707,667 L704,683"/>
</g>

<g fill="#00ff00" fill-opacity="1" stroke="#00ff00" stroke-opacity="1" stroke-width="1" stroke-linecap="round" stroke-linejoin="round" transform="matrix(1,0,0,1,0,0)"
font-family="Noto Sans" font-size="10" font-weight="400" font-style="normal" 
>
<path vector-effect="non-scaling-stroke" fill-rule="evenodd" d="M704,235 L707,251 L701,251 L704,235"/>
</g>

<g fill="none" stroke="#00ff00" stroke-opacity="1" stroke-width="1" stroke-linecap="round" stroke-linejoin="round" transform="matrix(1,0,0,1,0,0)"
font-family="Noto Sans" font-size="10" font-weight="400" font-style="normal" 
>
<polyline fill="none" vector-effect="non-scaling-stroke" points="686,495 686,494 " />
<polyline fill="none" vector-effect="non-scaling-stroke" points="689,488 687,488 686,488 684,489 684,491 684,493 685,494 686,494 " />
<polyline fill="none" vector-effect="non-scaling-stroke" points="689,488 700,495 " />
<polyline fill="none" vector-effect="non-scaling-stroke" points="700,495 700,488 " />
<polyline fill="none" vector-effect="non-scaling-stroke" points="686,482 684,482 " />
<polyline fill="none" vector-effect="non-scaling-stroke" points="684,482 684,475 " />
<polyline fill="none" vector-effect="non-scaling-stroke" points="684,475 700,479 " />
<polyline fill="none" vector-effect="non-scaling-stroke" points="700,470 699,470 " />
<polyline fill="none" vector-effect="non-scaling-stroke" points="684,464 684,461 " />
<polyline fill="none" vector-effect="non-scaling-stroke" points="691,461 691,459 689,458 688,457 686,457 685,459 684,460 684,461 " />
<polyline fill="none" vector-effect="non-scaling-stroke" points="691,463 691,461 " />
<polyline fill="none" vector-effect="non-scaling-stroke" points="695,457 693,458 692,459 691,460 691,461 " />
<polyline fill="none" vector-effect="non-scaling-stroke" points="695,457 696,457 " />
<polyline fill="none" vector-effect="non-scaling-stroke" points="700,461 700,459 698,458 697,457 696,457 " />
<polyline fill="none" vector-effect="non-scaling-stroke" points="700,461 700,464 " />
<polyline fill="none" vector-effect="non-scaling-stroke" points="685,446 684,447 684,448 684,449 685,450 " />
<polyline fill="none" vector-effect="non-scaling-stroke" points="685,450 687,451 688,451 690,452 692,452 694,452 696,451 698,450 699,450 " />
<polyline fill="none" vector-effect="non-scaling-stroke" points="699,450 700,449 700,448 700,447 699,446 " />
<polyline fill="none" vector-effect="non-scaling-stroke" points="699,446 697,446 695,445 693,445 691,445 689,445 687,445 686,446 685,446 " />
<polyline fill="none" vector-effect="non-scaling-stroke" points="684,439 684,436 " />
<polyline fill="none" vector-effect="non-scaling-stroke" points="691,436 691,434 689,433 688,432 686,432 685,433 684,435 684,436 " />
<polyline fill="none" vector-effect="non-scaling-stroke" points="691,437 691,436 " />
<polyline fill="none" vector-effect="non-scaling-stroke" points="695,432 693,432 692,434 691,435 691,436 " />
<polyline fill="none" vector-effect="non-scaling-stroke" points="695,432 696,432 " />
<polyline fill="none" vector-effect="non-scaling-stroke" points="700,436 700,434 698,433 697,432 696,432 " />
<polyline fill="none" vector-effect="non-scaling-stroke" points="700,436 700,439 " />
<polyline fill="none" vector-effect="non-scaling-stroke" points="687,427 684,423 " />
<polyline fill="none" vector-effect="non-scaling-stroke" points="684,423 700,423 " />
<polyline fill="none" vector-effect="non-scaling-stroke" points="615,683 712,683 " />
<polyline fill="none" vector-effect="non-scaling-stroke" points="615,235 712,235 " />
<polyline fill="none" vector-effect="non-scaling-stroke" points="781,683 781,134 " />
</g>

<g fill="#00ff00" fill-opacity="1" stroke="#00ff00" stroke-opacity="1" stroke-width="1" stroke-linecap="round" stroke-linejoin="round" transform="matrix(1,0,0,1,0,0)"
font-family="Noto Sans" font-size="10" font-weight="400" font-style="normal" 
>
<path vector-effect="non-scaling-stroke" fill-rule="evenodd" d="M781,683 L779,667 L784,667 L781,683"/>
</g>

<g fill="#00ff00" fill-opacity="1" stroke="#00ff00" stroke-opacity="1" stroke-width="1" stroke-linecap="round" stroke-linejoin="round" transform="matrix(1,0,0,1,0,0)"
font-family="Noto Sans" font-size="10" font-weight="400" font-style="normal" 
>
<path vector-effect="non-scaling-stroke" fill-rule="evenodd" d="M781,134 L784,150 L779,150 L781,134"/>
</g>

<g fill="none" stroke="#00ff00" stroke-opacity="1" stroke-width="1" stroke-linecap="round" stroke-linejoin="round" transform="matrix(1,0,0,1,0,0)"
font-family="Noto Sans" font-size="10" font-weight="400" font-style="normal" 
>
<polyline fill="none" vector-effect="non-scaling-stroke" points="761,449 761,445 " />
<polyline fill="none" vector-effect="non-scaling-stroke" points="768,445 768,444 767,442 765,442 763,442 762,443 761,445 " />
<polyline fill="none" vector-effect="non-scaling-stroke" points="768,447 768,445 " />
<polyline fill="none" vector-effect="non-scaling-stroke" points="772,442 770,442 769,443 768,445 " />
<polyline fill="none" vector-effect="non-scaling-stroke" points="772,442 774,442 " />
<polyline fill="none" vector-effect="non-scaling-stroke" points="777,445 777,444 776,442 774,442 " />
<polyline fill="none" vector-effect="non-scaling-stroke" points="777,445 777,449 " />
<polyline fill="none" vector-effect="non-scaling-stroke" points="761,436 761,433 " />
<polyline fill="none" vector-effect="non-scaling-stroke" points="768,433 768,431 767,430 765,429 763,430 762,431 761,432 761,433 " />
<polyline fill="none" vector-effect="non-scaling-stroke" points="768,435 768,433 " />
<polyline fill="none" vector-effect="non-scaling-stroke" points="772,429 770,430 769,431 768,433 " />
<polyline fill="none" vector-effect="non-scaling-stroke" points="772,429 774,429 " />
<polyline fill="none" vector-effect="non-scaling-stroke" points="777,433 777,431 776,430 774,429 " />
<polyline fill="none" vector-effect="non-scaling-stroke" points="777,433 777,436 " />
</g>

<g fill="#00ff00" fill-opacity="1" stroke="none" transform="matrix(1,0,0,1,0,0)"
font-family="Noto Sans" font-size="10" font-weight="400" font-style="normal" 
>
<circle cx="777" cy="424" r="0.5"/>
</g>

<g fill="none" stroke="#00ff00" stroke-opacity="1" stroke-width="1" stroke-linecap="round" stroke-linejoin="round" transform="matrix(1,0,0,1,0,0)"
font-family="Noto Sans" font-size="10" font-weight="400" font-style="normal" 
>
<polyline fill="none" vector-effect="non-scaling-stroke" points="761,415 774,418 " />
<polyline fill="none" vector-effect="non-scaling-stroke" points="774,418 774,409 " />
<polyline fill="none" vector-effect="non-scaling-stroke" points="770,412 777,412 " />
<polyline fill="none" vector-effect="non-scaling-stroke" points="761,400 774,404 " />
<polyline fill="none" vector-effect="non-scaling-stroke" points="774,404 774,395 " />
<polyline fill="none" vector-effect="non-scaling-stroke" points="770,398 777,398 " />
<polyline fill="none" vector-effect="non-scaling-stroke" points="761,386 774,390 " />
<polyline fill="none" vector-effect="non-scaling-stroke" points="774,390 774,381 " />
<polyline fill="none" vector-effect="non-scaling-stroke" points="770,383 777,383 " />
<polyline fill="none" vector-effect="non-scaling-stroke" points="770,368 770,372 " />
<polyline fill="none" vector-effect="non-scaling-stroke" points="767,375 768,375 770,374 770,372 " />
<polyline fill="none" vector-effect="non-scaling-stroke" points="767,375 765,375 " />
<polyline fill="none" vector-effect="non-scaling-stroke" points="765,368 763,369 762,370 761,372 762,373 763,375 764,375 765,375 " />
<polyline fill="none" vector-effect="non-scaling-stroke" points="765,368 770,368 " />
<polyline fill="none" vector-effect="non-scaling-stroke" points="777,374 777,372 775,370 774,369 772,368 770,368 " />
<polyline fill="none" vector-effect="non-scaling-stroke" points="717,683 790,683 " />
<polyline fill="none" vector-effect="non-scaling-stroke" points="756,134 790,134 " />
<polyline fill="none" vector-effect="non-scaling-stroke" points="10,103 752,103 " />
</g>

<g fill="#00ff00" fill-opacity="1" stroke="#00ff00" stroke-opacity="1" stroke-width="1" stroke-linecap="round" stroke-linejoin="round" transform="matrix(1,0,0,1,0,0)"
font-family="Noto Sans" font-size="10" font-weight="400" font-style="normal" 
>
<path vector-effect="non-scaling-stroke" fill-rule="evenodd" d="M10,103 L26,100 L26,106 L10,103"/>
</g>

<g fill="#00ff00" fill-opacity="1" stroke="#00ff00" stroke-opacity="1" stroke-width="1" stroke-linecap="round" stroke-linejoin="round" transform="matrix(1,0,0,1,0,0)"
font-family="Noto Sans" font-size="10" font-weight="400" font-style="normal" 
>
<path vector-effect="non-scaling-stroke" fill-rule="evenodd" d="M752,103 L736,106 L736,100 L752,103"/>
</g>

<g fill="none" stroke="#00ff00" stroke-opacity="1" stroke-width="1" stroke-linecap="round" stroke-linejoin="round" transform="matrix(1,0,0,1,0,0)"
font-family="Noto Sans" font-size="10" font-weight="400" font-style="normal" 
>
<polyline fill="none" vector-effect="non-scaling-stroke" points="346,83 342,95 " />
<polyline fill="none" vector-effect="non-scaling-stroke" points="342,95 351,95 " />
<polyline fill="none" vector-effect="non-scaling-stroke" points="349,92 349,99 " />
<polyline fill="none" vector-effect="non-scaling-stroke" points="364,83 357,83 " />
<polyline fill="none" vector-effect="non-scaling-stroke" points="357,83 357,90 " />
<polyline fill="none" vector-effect="non-scaling-stroke" points="357,90 360,90 " />
<polyline fill="none" vector-effect="non-scaling-stroke" points="364,93 364,92 362,90 361,90 360,90 " />
<polyline fill="none" vector-effect="non-scaling-stroke" points="364,93 364,95 " />
<polyline fill="none" vector-effect="non-scaling-stroke" points="360,99 362,98 363,97 364,95 " />
<polyline fill="none" vector-effect="non-scaling-stroke" points="360,99 357,99 " />
<polyline fill="none" vector-effect="non-scaling-stroke" points="369,99 369,98 " />
<polyline fill="none" vector-effect="non-scaling-stroke" points="375,85 375,84 " />
<polyline fill="none" vector-effect="non-scaling-stroke" points="381,88 382,86 381,85 380,83 379,83 377,83 375,84 " />
<polyline fill="none" vector-effect="non-scaling-stroke" points="381,88 375,99 " />
<polyline fill="none" vector-effect="non-scaling-stroke" points="375,99 382,99 " />
<polyline fill="none" vector-effect="non-scaling-stroke" points="387,84 387,83 " />
<polyline fill="none" vector-effect="non-scaling-stroke" points="387,83 394,83 " />
<polyline fill="none" vector-effect="non-scaling-stroke" points="394,83 391,99 " />
<polyline fill="none" vector-effect="non-scaling-stroke" points="407,83 400,83 " />
<polyline fill="none" vector-effect="non-scaling-stroke" points="400,83 400,90 " />
<polyline fill="none" vector-effect="non-scaling-stroke" points="400,90 403,90 " />
<polyline fill="none" vector-effect="non-scaling-stroke" points="407,93 407,92 405,90 404,90 403,90 " />
<polyline fill="none" vector-effect="non-scaling-stroke" points="407,93 407,95 " />
<polyline fill="none" vector-effect="non-scaling-stroke" points="403,99 405,98 406,97 407,95 " />
<polyline fill="none" vector-effect="non-scaling-stroke" points="403,99 400,99 " />
<polyline fill="none" vector-effect="non-scaling-stroke" points="412,90 416,90 " />
<polyline fill="none" vector-effect="non-scaling-stroke" points="420,93 419,92 418,90 416,90 " />
<polyline fill="none" vector-effect="non-scaling-stroke" points="420,93 420,95 " />
<polyline fill="none" vector-effect="non-scaling-stroke" points="412,95 413,97 414,98 416,99 417,98 419,97 420,96 420,95 " />
<polyline fill="none" vector-effect="non-scaling-stroke" points="412,95 412,90 " />
<polyline fill="none" vector-effect="non-scaling-stroke" points="418,83 416,83 414,85 413,86 413,88 412,90 " />
<polyline fill="none" vector-effect="non-scaling-stroke" points="10,130 10,95 " />
<polyline fill="none" vector-effect="non-scaling-stroke" points="752,130 752,95 " />
</g>
</g>
</svg>
