<?xml version="1.0" encoding="UTF-8" standalone="no"?>
<svg width="282.222mm" height="282.222mm"
 viewBox="0 0 800 800"
 xmlns="http://www.w3.org/2000/svg" xmlns:xlink="http://www.w3.org/1999/xlink"  version="1.2" baseProfile="tiny">
<title>Qt SVG Document</title>
<desc>Generated with Qt</desc>
<defs>
</defs>
<g fill="none" stroke="black" stroke-width="1" fill-rule="evenodd" stroke-linecap="square" stroke-linejoin="bevel" >

<g fill="#000000" fill-opacity="1" stroke="none" transform="matrix(1,0,0,1,0,0)"
font-family="Noto Sans" font-size="10" font-weight="400" font-style="normal" 
>
<rect x="0" y="0" width="800" height="800"/>
</g>

<g fill="none" stroke="#00ff00" stroke-opacity="1" stroke-width="1" stroke-linecap="round" stroke-linejoin="round" transform="matrix(1,0,0,1,0,0)"
font-family="Noto Sans" font-size="10" font-weight="400" font-style="normal" 
>
<polyline fill="none" vector-effect="non-scaling-stroke" points="131,695 521,695 " />
</g>

<g fill="#00ff00" fill-opacity="1" stroke="#00ff00" stroke-opacity="1" stroke-width="1" stroke-linecap="round" stroke-linejoin="round" transform="matrix(1,0,0,1,0,0)"
font-family="Noto Sans" font-size="10" font-weight="400" font-style="normal" 
>
<path vector-effect="non-scaling-stroke" fill-rule="evenodd" d="M131,695 L146,692 L146,697 L131,695"/>
</g>

<g fill="#00ff00" fill-opacity="1" stroke="#00ff00" stroke-opacity="1" stroke-width="1" stroke-linecap="round" stroke-linejoin="round" transform="matrix(1,0,0,1,0,0)"
font-family="Noto Sans" font-size="10" font-weight="400" font-style="normal" 
>
<path vector-effect="non-scaling-stroke" fill-rule="evenodd" d="M521,695 L506,697 L506,692 L521,695"/>
</g>

<g fill="none" stroke="#00ff00" stroke-opacity="1" stroke-width="1" stroke-linecap="round" stroke-linejoin="round" transform="matrix(1,0,0,1,0,0)"
font-family="Noto Sans" font-size="10" font-weight="400" font-style="normal" 
>
<polyline fill="none" vector-effect="non-scaling-stroke" points="289,682 293,682 " />
<polyline fill="none" vector-effect="non-scaling-stroke" points="296,686 296,684 295,683 293,682 " />
<polyline fill="none" vector-effect="non-scaling-stroke" points="296,686 296,687 " />
<polyline fill="none" vector-effect="non-scaling-stroke" points="289,687 290,689 291,690 293,691 294,690 296,689 296,688 296,687 " />
<polyline fill="none" vector-effect="non-scaling-stroke" points="289,687 289,682 " />
<polyline fill="none" vector-effect="non-scaling-stroke" points="295,675 293,676 291,677 290,679 290,681 289,682 " />
<polyline fill="none" vector-effect="non-scaling-stroke" points="302,678 302,677 " />
<polyline fill="none" vector-effect="non-scaling-stroke" points="308,680 309,679 308,677 307,676 305,675 304,675 302,676 302,677 " />
<polyline fill="none" vector-effect="non-scaling-stroke" points="308,680 302,691 " />
<polyline fill="none" vector-effect="non-scaling-stroke" points="302,691 309,691 " />
<polyline fill="none" vector-effect="non-scaling-stroke" points="314,691 314,690 " />
<polyline fill="none" vector-effect="non-scaling-stroke" points="319,675 323,675 " />
<polyline fill="none" vector-effect="non-scaling-stroke" points="323,682 324,682 325,681 326,679 326,677 325,676 323,675 " />
<polyline fill="none" vector-effect="non-scaling-stroke" points="321,682 323,682 " />
<polyline fill="none" vector-effect="non-scaling-stroke" points="326,686 326,684 324,683 323,682 " />
<polyline fill="none" vector-effect="non-scaling-stroke" points="326,686 326,687 " />
<polyline fill="none" vector-effect="non-scaling-stroke" points="323,691 324,690 325,689 326,688 326,687 " />
<polyline fill="none" vector-effect="non-scaling-stroke" points="323,691 319,691 " />
<polyline fill="none" vector-effect="non-scaling-stroke" points="338,687 338,686 " />
<polyline fill="none" vector-effect="non-scaling-stroke" points="338,686 338,684 337,683 335,682 333,682 332,684 331,685 331,686 " />
<polyline fill="none" vector-effect="non-scaling-stroke" points="331,686 331,687 " />
<polyline fill="none" vector-effect="non-scaling-stroke" points="331,687 332,689 333,690 334,691 336,690 337,689 338,688 338,687 " />
<polyline fill="none" vector-effect="non-scaling-stroke" points="335,682 336,682 338,681 338,679 338,677 337,676 335,675 " />
<polyline fill="none" vector-effect="non-scaling-stroke" points="335,675 333,676 332,677 331,678 332,680 333,681 334,682 335,682 " />
<polyline fill="none" vector-effect="non-scaling-stroke" points="349,676 348,675 347,675 346,675 345,676 " />
<polyline fill="none" vector-effect="non-scaling-stroke" points="345,676 344,678 344,680 343,682 343,684 344,686 344,688 345,689 345,690 " />
<polyline fill="none" vector-effect="non-scaling-stroke" points="345,690 346,691 347,691 348,690 349,690 " />
<polyline fill="none" vector-effect="non-scaling-stroke" points="349,690 349,688 350,686 350,684 350,682 350,680 350,678 349,676 " />
<polyline fill="none" vector-effect="non-scaling-stroke" points="361,676 360,675 359,675 358,675 357,676 " />
<polyline fill="none" vector-effect="non-scaling-stroke" points="357,676 357,678 356,680 356,682 356,684 356,686 356,688 357,689 357,690 " />
<polyline fill="none" vector-effect="non-scaling-stroke" points="357,690 358,691 359,691 360,690 361,690 " />
<polyline fill="none" vector-effect="non-scaling-stroke" points="361,690 362,688 362,686 362,684 363,682 362,680 362,678 361,676 " />
<polyline fill="none" vector-effect="non-scaling-stroke" points="131,672 131,757 " />
<polyline fill="none" vector-effect="non-scaling-stroke" points="521,672 521,757 " />
<polyline fill="none" vector-effect="non-scaling-stroke" points="10,106 642,106 " />
</g>

<g fill="#00ff00" fill-opacity="1" stroke="#00ff00" stroke-opacity="1" stroke-width="1" stroke-linecap="round" stroke-linejoin="round" transform="matrix(1,0,0,1,0,0)"
font-family="Noto Sans" font-size="10" font-weight="400" font-style="normal" 
>
<path vector-effect="non-scaling-stroke" fill-rule="evenodd" d="M10,106 L25,103 L25,108 L10,106"/>
</g>

<g fill="#00ff00" fill-opacity="1" stroke="#00ff00" stroke-opacity="1" stroke-width="1" stroke-linecap="round" stroke-linejoin="round" transform="matrix(1,0,0,1,0,0)"
font-family="Noto Sans" font-size="10" font-weight="400" font-style="normal" 
>
<path vector-effect="non-scaling-stroke" fill-rule="evenodd" d="M642,106 L627,108 L627,103 L642,106"/>
</g>

<g fill="none" stroke="#00ff00" stroke-opacity="1" stroke-width="1" stroke-linecap="round" stroke-linejoin="round" transform="matrix(1,0,0,1,0,0)"
font-family="Noto Sans" font-size="10" font-weight="400" font-style="normal" 
>
<polyline fill="none" vector-effect="non-scaling-stroke" points="287,90 290,86 " />
<polyline fill="none" vector-effect="non-scaling-stroke" points="290,86 290,102 " />
<polyline fill="none" vector-effect="non-scaling-stroke" points="301,87 300,86 299,86 298,87 297,87 " />
<polyline fill="none" vector-effect="non-scaling-stroke" points="297,87 296,89 296,91 296,93 296,95 296,97 296,99 297,101 " />
<polyline fill="none" vector-effect="non-scaling-stroke" points="297,101 298,102 299,102 300,102 301,101 " />
<polyline fill="none" vector-effect="non-scaling-stroke" points="301,101 302,99 302,97 302,95 302,93 302,91 302,89 301,88 301,87 " />
<polyline fill="none" vector-effect="non-scaling-stroke" points="308,90 311,86 " />
<polyline fill="none" vector-effect="non-scaling-stroke" points="311,86 311,102 " />
<polyline fill="none" vector-effect="non-scaling-stroke" points="316,102 316,101 " />
<polyline fill="none" vector-effect="non-scaling-stroke" points="327,87 326,86 325,86 324,87 323,87 " />
<polyline fill="none" vector-effect="non-scaling-stroke" points="323,87 323,89 322,91 322,93 322,95 322,97 322,99 323,101 " />
<polyline fill="none" vector-effect="non-scaling-stroke" points="323,101 324,102 325,102 326,102 327,101 " />
<polyline fill="none" vector-effect="non-scaling-stroke" points="327,101 328,99 328,97 329,95 329,93 328,91 328,89 327,88 327,87 " />
<polyline fill="none" vector-effect="non-scaling-stroke" points="339,87 338,86 337,86 336,87 " />
<polyline fill="none" vector-effect="non-scaling-stroke" points="336,87 335,89 334,91 334,93 334,95 334,97 335,99 335,101 336,101 " />
<polyline fill="none" vector-effect="non-scaling-stroke" points="336,101 336,102 337,102 338,102 339,101 " />
<polyline fill="none" vector-effect="non-scaling-stroke" points="339,101 340,99 340,97 341,95 341,93 341,91 340,89 339,88 339,87 " />
<polyline fill="none" vector-effect="non-scaling-stroke" points="351,87 350,86 349,86 348,87 " />
<polyline fill="none" vector-effect="non-scaling-stroke" points="348,87 347,89 346,91 346,93 346,95 346,97 347,99 348,101 " />
<polyline fill="none" vector-effect="non-scaling-stroke" points="348,101 349,102 350,102 351,102 351,101 " />
<polyline fill="none" vector-effect="non-scaling-stroke" points="351,101 352,99 353,97 353,95 353,93 353,91 352,89 351,88 351,87 " />
<polyline fill="none" vector-effect="non-scaling-stroke" points="363,87 363,86 362,86 360,87 " />
<polyline fill="none" vector-effect="non-scaling-stroke" points="360,87 359,89 359,91 358,93 358,95 358,97 359,99 360,101 " />
<polyline fill="none" vector-effect="non-scaling-stroke" points="360,101 361,102 362,102 363,102 363,101 " />
<polyline fill="none" vector-effect="non-scaling-stroke" points="363,101 364,99 365,97 365,95 365,93 365,91 364,89 364,88 363,87 " />
<polyline fill="none" vector-effect="non-scaling-stroke" points="10,132 10,43 " />
<polyline fill="none" vector-effect="non-scaling-stroke" points="642,132 642,43 " />
<polyline fill="none" vector-effect="non-scaling-stroke" points="620,668 620,234 " />
</g>

<g fill="#00ff00" fill-opacity="1" stroke="#00ff00" stroke-opacity="1" stroke-width="1" stroke-linecap="round" stroke-linejoin="round" transform="matrix(1,0,0,1,0,0)"
font-family="Noto Sans" font-size="10" font-weight="400" font-style="normal" 
>
<path vector-effect="non-scaling-stroke" fill-rule="evenodd" d="M620,668 L618,653 L623,653 L620,668"/>
</g>

<g fill="#00ff00" fill-opacity="1" stroke="#00ff00" stroke-opacity="1" stroke-width="1" stroke-linecap="round" stroke-linejoin="round" transform="matrix(1,0,0,1,0,0)"
font-family="Noto Sans" font-size="10" font-weight="400" font-style="normal" 
>
<path vector-effect="non-scaling-stroke" fill-rule="evenodd" d="M620,234 L623,250 L618,250 L620,234"/>
</g>

<g fill="none" stroke="#00ff00" stroke-opacity="1" stroke-width="1" stroke-linecap="round" stroke-linejoin="round" transform="matrix(1,0,0,1,0,0)"
font-family="Noto Sans" font-size="10" font-weight="400" font-style="normal" 
>
<polyline fill="none" vector-effect="non-scaling-stroke" points="608,488 608,484 " />
<polyline fill="none" vector-effect="non-scaling-stroke" points="611,481 610,481 608,482 608,484 " />
<polyline fill="none" vector-effect="non-scaling-stroke" points="611,481 613,481 " />
<polyline fill="none" vector-effect="non-scaling-stroke" points="613,488 615,487 616,486 617,484 616,483 615,481 614,481 613,481 " />
<polyline fill="none" vector-effect="non-scaling-stroke" points="613,488 608,488 " />
<polyline fill="none" vector-effect="non-scaling-stroke" points="601,482 602,484 603,486 605,487 607,488 608,488 " />
<polyline fill="none" vector-effect="non-scaling-stroke" points="610,469 610,472 " />
<polyline fill="none" vector-effect="non-scaling-stroke" points="606,476 608,475 609,474 610,472 " />
<polyline fill="none" vector-effect="non-scaling-stroke" points="606,476 604,476 " />
<polyline fill="none" vector-effect="non-scaling-stroke" points="604,469 603,469 601,470 601,472 601,474 602,475 604,475 604,476 " />
<polyline fill="none" vector-effect="non-scaling-stroke" points="604,469 610,469 " />
<polyline fill="none" vector-effect="non-scaling-stroke" points="617,474 616,472 614,470 613,469 611,469 610,469 " />
<polyline fill="none" vector-effect="non-scaling-stroke" points="617,463 616,463 " />
<polyline fill="none" vector-effect="non-scaling-stroke" points="601,458 601,455 " />
<polyline fill="none" vector-effect="non-scaling-stroke" points="608,455 607,453 606,452 605,451 603,451 602,453 601,454 601,455 " />
<polyline fill="none" vector-effect="non-scaling-stroke" points="608,456 608,455 " />
<polyline fill="none" vector-effect="non-scaling-stroke" points="611,451 610,452 608,453 608,454 608,455 " />
<polyline fill="none" vector-effect="non-scaling-stroke" points="611,451 613,451 " />
<polyline fill="none" vector-effect="non-scaling-stroke" points="617,455 616,453 615,452 613,451 " />
<polyline fill="none" vector-effect="non-scaling-stroke" points="617,455 617,458 " />
<polyline fill="none" vector-effect="non-scaling-stroke" points="601,439 601,446 " />
<polyline fill="none" vector-effect="non-scaling-stroke" points="601,446 608,446 " />
<polyline fill="none" vector-effect="non-scaling-stroke" points="608,446 608,442 " />
<polyline fill="none" vector-effect="non-scaling-stroke" points="611,439 610,439 608,441 608,442 " />
<polyline fill="none" vector-effect="non-scaling-stroke" points="611,439 613,439 " />
<polyline fill="none" vector-effect="non-scaling-stroke" points="617,442 616,441 615,440 613,439 " />
<polyline fill="none" vector-effect="non-scaling-stroke" points="617,442 617,446 " />
<polyline fill="none" vector-effect="non-scaling-stroke" points="602,429 601,429 601,430 601,431 602,432 " />
<polyline fill="none" vector-effect="non-scaling-stroke" points="602,432 604,433 605,433 607,434 609,434 611,434 613,433 615,432 616,432 " />
<polyline fill="none" vector-effect="non-scaling-stroke" points="616,432 616,431 617,430 616,429 " />
<polyline fill="none" vector-effect="non-scaling-stroke" points="616,429 614,428 612,427 610,427 608,427 606,427 604,428 602,428 602,429 " />
<polyline fill="none" vector-effect="non-scaling-stroke" points="602,416 601,417 601,418 601,419 602,420 " />
<polyline fill="none" vector-effect="non-scaling-stroke" points="602,420 604,421 605,421 607,422 609,422 611,421 613,421 615,420 616,420 " />
<polyline fill="none" vector-effect="non-scaling-stroke" points="616,420 616,419 617,418 616,417 616,416 " />
<polyline fill="none" vector-effect="non-scaling-stroke" points="616,416 614,416 612,415 610,415 608,415 606,415 604,415 602,416 " />
<polyline fill="none" vector-effect="non-scaling-stroke" points="525,668 683,668 " />
<polyline fill="none" vector-effect="non-scaling-stroke" points="525,234 683,234 " />
</g>

<g fill="none" stroke="#ffffff" stroke-opacity="1" stroke-width="1" stroke-linecap="round" stroke-linejoin="round" transform="matrix(1,0,0,1,0,0)"
font-family="Noto Sans" font-size="10" font-weight="400" font-style="normal" 
>
<polyline fill="none" vector-effect="non-scaling-stroke" points="131,234 521,234 " />
<polyline fill="none" vector-effect="non-scaling-stroke" points="521,234 521,668 " />
<polyline fill="none" vector-effect="non-scaling-stroke" points="521,668 542,668 " />
<polyline fill="none" vector-effect="non-scaling-stroke" points="542,668 569,244 " />
<polyline fill="none" vector-effect="non-scaling-stroke" points="569,244 569,234 " />
<polyline fill="none" vector-effect="non-scaling-stroke" points="569,234 575,234 " />
<polyline fill="none" vector-effect="non-scaling-stroke" points="575,234 575,174 " />
<polyline fill="none" vector-effect="non-scaling-stroke" points="575,174 586,174 " />
<polyline fill="none" vector-effect="non-scaling-stroke" points="586,174 586,154 " />
<polyline fill="none" vector-effect="non-scaling-stroke" points="586,154 642,154 " />
<polyline fill="none" vector-effect="non-scaling-stroke" points="642,154 642,133 " />
<polyline fill="none" vector-effect="non-scaling-stroke" points="642,133 10,133 " />
<polyline fill="none" vector-effect="non-scaling-stroke" points="10,133 10,154 " />
<polyline fill="none" vector-effect="non-scaling-stroke" points="10,154 66,154 " />
<polyline fill="none" vector-effect="non-scaling-stroke" points="66,154 66,174 " />
<polyline fill="none" vector-effect="non-scaling-stroke" points="66,174 77,174 " />
<polyline fill="none" vector-effect="non-scaling-stroke" points="77,174 77,234 " />
<polyline fill="none" vector-effect="non-scaling-stroke" points="77,234 83,234 " />
<polyline fill="none" vector-effect="non-scaling-stroke" points="83,234 83,244 " />
<polyline fill="none" vector-effect="non-scaling-stroke" points="83,244 110,668 " />
<polyline fill="none" vector-effect="non-scaling-stroke" points="110,668 131,668 " />
<polyline fill="none" vector-effect="non-scaling-stroke" points="131,668 131,234 " />
</g>

<g fill="none" stroke="#00ff00" stroke-opacity="1" stroke-width="1" stroke-linecap="round" stroke-linejoin="round" transform="matrix(1,0,0,1,0,0)"
font-family="Noto Sans" font-size="10" font-weight="400" font-style="normal" 
>
<polyline fill="none" vector-effect="non-scaling-stroke" points="727,668 727,133 " />
</g>

<g fill="#00ff00" fill-opacity="1" stroke="#00ff00" stroke-opacity="1" stroke-width="1" stroke-linecap="round" stroke-linejoin="round" transform="matrix(1,0,0,1,0,0)"
font-family="Noto Sans" font-size="10" font-weight="400" font-style="normal" 
>
<path vector-effect="non-scaling-stroke" fill-rule="evenodd" d="M727,668 L724,653 L730,653 L727,668"/>
</g>

<g fill="#00ff00" fill-opacity="1" stroke="#00ff00" stroke-opacity="1" stroke-width="1" stroke-linecap="round" stroke-linejoin="round" transform="matrix(1,0,0,1,0,0)"
font-family="Noto Sans" font-size="10" font-weight="400" font-style="normal" 
>
<path vector-effect="non-scaling-stroke" fill-rule="evenodd" d="M727,133 L730,149 L724,149 L727,133"/>
</g>

<g fill="none" stroke="#00ff00" stroke-opacity="1" stroke-width="1" stroke-linecap="round" stroke-linejoin="round" transform="matrix(1,0,0,1,0,0)"
font-family="Noto Sans" font-size="10" font-weight="400" font-style="normal" 
>
<polyline fill="none" vector-effect="non-scaling-stroke" points="720,431 718,431 " />
<polyline fill="none" vector-effect="non-scaling-stroke" points="718,431 716,432 715,433 714,434 715,436 716,437 717,438 718,438 " />
<polyline fill="none" vector-effect="non-scaling-stroke" points="718,438 720,438 " />
<polyline fill="none" vector-effect="non-scaling-stroke" points="720,438 721,438 722,437 723,435 723,433 722,432 720,431 " />
<polyline fill="none" vector-effect="non-scaling-stroke" points="714,435 714,433 713,432 711,431 709,432 708,433 707,434 707,435 " />
<polyline fill="none" vector-effect="non-scaling-stroke" points="707,435 708,436 709,438 711,438 712,438 714,437 714,435 " />
<polyline fill="none" vector-effect="non-scaling-stroke" points="707,419 707,426 " />
<polyline fill="none" vector-effect="non-scaling-stroke" points="707,426 714,426 " />
<polyline fill="none" vector-effect="non-scaling-stroke" points="714,426 714,422 " />
<polyline fill="none" vector-effect="non-scaling-stroke" points="718,419 716,419 715,421 714,422 " />
<polyline fill="none" vector-effect="non-scaling-stroke" points="718,419 720,419 " />
<polyline fill="none" vector-effect="non-scaling-stroke" points="723,422 723,421 721,420 720,419 " />
<polyline fill="none" vector-effect="non-scaling-stroke" points="723,422 723,426 " />
<polyline fill="none" vector-effect="non-scaling-stroke" points="723,414 722,414 " />
<polyline fill="none" vector-effect="non-scaling-stroke" points="707,405 720,409 " />
<polyline fill="none" vector-effect="non-scaling-stroke" points="720,409 720,400 " />
<polyline fill="none" vector-effect="non-scaling-stroke" points="716,402 723,402 " />
<polyline fill="none" vector-effect="non-scaling-stroke" points="707,388 707,395 " />
<polyline fill="none" vector-effect="non-scaling-stroke" points="707,395 714,395 " />
<polyline fill="none" vector-effect="non-scaling-stroke" points="714,395 714,391 " />
<polyline fill="none" vector-effect="non-scaling-stroke" points="718,388 716,388 715,389 714,391 " />
<polyline fill="none" vector-effect="non-scaling-stroke" points="718,388 720,388 " />
<polyline fill="none" vector-effect="non-scaling-stroke" points="723,391 723,389 721,388 720,388 " />
<polyline fill="none" vector-effect="non-scaling-stroke" points="723,391 723,395 " />
<polyline fill="none" vector-effect="non-scaling-stroke" points="708,377 708,378 707,379 708,380 708,381 " />
<polyline fill="none" vector-effect="non-scaling-stroke" points="708,381 710,382 712,382 714,382 716,382 718,382 720,382 722,381 " />
<polyline fill="none" vector-effect="non-scaling-stroke" points="722,381 723,380 723,379 723,378 722,377 " />
<polyline fill="none" vector-effect="non-scaling-stroke" points="722,377 720,376 718,376 716,376 714,376 712,376 711,376 709,377 708,377 " />
<polyline fill="none" vector-effect="non-scaling-stroke" points="708,365 708,366 707,367 708,368 708,369 " />
<polyline fill="none" vector-effect="non-scaling-stroke" points="708,369 710,369 712,370 714,370 716,370 718,370 720,370 722,369 " />
<polyline fill="none" vector-effect="non-scaling-stroke" points="722,369 723,368 723,367 723,366 722,365 " />
<polyline fill="none" vector-effect="non-scaling-stroke" points="722,365 720,364 718,364 716,363 714,363 712,364 711,364 709,365 708,365 " />
<polyline fill="none" vector-effect="non-scaling-stroke" points="691,668 790,668 " />
<polyline fill="none" vector-effect="non-scaling-stroke" points="646,133 790,133 " />
</g>
</g>
</svg>
