<?xml version="1.0" encoding="UTF-8" standalone="no"?>
<svg width="282.222mm" height="282.222mm"
 viewBox="0 0 800 800"
 xmlns="http://www.w3.org/2000/svg" xmlns:xlink="http://www.w3.org/1999/xlink"  version="1.2" baseProfile="tiny">
<title>Qt SVG Document</title>
<desc>Generated with Qt</desc>
<defs>
</defs>
<g fill="none" stroke="black" stroke-width="1" fill-rule="evenodd" stroke-linecap="square" stroke-linejoin="bevel" >

<g fill="#000000" fill-opacity="1" stroke="none" transform="matrix(1,0,0,1,0,0)"
font-family="Noto Sans" font-size="10" font-weight="400" font-style="normal" 
>
<rect x="0" y="0" width="800" height="800"/>
</g>

<g fill="none" stroke="#ffffff" stroke-opacity="1" stroke-width="1" stroke-linecap="round" stroke-linejoin="round" transform="matrix(1,0,0,1,0,0)"
font-family="Noto Sans" font-size="10" font-weight="400" font-style="normal" 
>
<polyline fill="none" vector-effect="non-scaling-stroke" points="149,215 601,215 " />
<polyline fill="none" vector-effect="non-scaling-stroke" points="601,215 601,717 " />
<polyline fill="none" vector-effect="non-scaling-stroke" points="601,717 625,717 " />
<polyline fill="none" vector-effect="non-scaling-stroke" points="625,717 656,226 " />
<polyline fill="none" vector-effect="non-scaling-stroke" points="656,226 656,215 " />
<polyline fill="none" vector-effect="non-scaling-stroke" points="656,215 663,215 " />
<polyline fill="none" vector-effect="non-scaling-stroke" points="663,215 663,150 " />
<polyline fill="none" vector-effect="non-scaling-stroke" points="663,150 675,150 " />
<polyline fill="none" vector-effect="non-scaling-stroke" points="675,150 675,126 " />
<polyline fill="none" vector-effect="non-scaling-stroke" points="675,126 741,126 " />
<polyline fill="none" vector-effect="non-scaling-stroke" points="741,126 741,102 " />
<polyline fill="none" vector-effect="non-scaling-stroke" points="741,102 9,102 " />
<polyline fill="none" vector-effect="non-scaling-stroke" points="9,102 9,126 " />
<polyline fill="none" vector-effect="non-scaling-stroke" points="9,126 75,126 " />
<polyline fill="none" vector-effect="non-scaling-stroke" points="75,126 75,150 " />
<polyline fill="none" vector-effect="non-scaling-stroke" points="75,150 87,150 " />
<polyline fill="none" vector-effect="non-scaling-stroke" points="87,150 87,215 " />
<polyline fill="none" vector-effect="non-scaling-stroke" points="87,215 94,215 " />
<polyline fill="none" vector-effect="non-scaling-stroke" points="94,215 94,226 " />
<polyline fill="none" vector-effect="non-scaling-stroke" points="94,226 125,717 " />
<polyline fill="none" vector-effect="non-scaling-stroke" points="125,717 149,717 " />
<polyline fill="none" vector-effect="non-scaling-stroke" points="149,717 149,215 " />
</g>

<g fill="none" stroke="#00ff00" stroke-opacity="1" stroke-width="1" stroke-linecap="round" stroke-linejoin="round" transform="matrix(1,0,0,1,0,0)"
font-family="Noto Sans" font-size="10" font-weight="400" font-style="normal" 
>
<polyline fill="none" vector-effect="non-scaling-stroke" points="149,747 601,747 " />
</g>

<g fill="#00ff00" fill-opacity="1" stroke="#00ff00" stroke-opacity="1" stroke-width="1" stroke-linecap="round" stroke-linejoin="round" transform="matrix(1,0,0,1,0,0)"
font-family="Noto Sans" font-size="10" font-weight="400" font-style="normal" 
>
<path vector-effect="non-scaling-stroke" fill-rule="evenodd" d="M149,747 L167,744 L167,750 L149,747"/>
</g>

<g fill="#00ff00" fill-opacity="1" stroke="#00ff00" stroke-opacity="1" stroke-width="1" stroke-linecap="round" stroke-linejoin="round" transform="matrix(1,0,0,1,0,0)"
font-family="Noto Sans" font-size="10" font-weight="400" font-style="normal" 
>
<path vector-effect="non-scaling-stroke" fill-rule="evenodd" d="M601,747 L583,750 L583,744 L601,747"/>
</g>

<g fill="none" stroke="#00ff00" stroke-opacity="1" stroke-width="1" stroke-linecap="round" stroke-linejoin="round" transform="matrix(1,0,0,1,0,0)"
font-family="Noto Sans" font-size="10" font-weight="400" font-style="normal" 
>
<polyline fill="none" vector-effect="non-scaling-stroke" points="333,733 337,733 " />
<polyline fill="none" vector-effect="non-scaling-stroke" points="341,737 340,735 339,734 337,733 " />
<polyline fill="none" vector-effect="non-scaling-stroke" points="341,737 341,739 " />
<polyline fill="none" vector-effect="non-scaling-stroke" points="333,739 333,741 335,742 336,743 338,743 340,741 341,740 341,739 " />
<polyline fill="none" vector-effect="non-scaling-stroke" points="333,739 333,733 " />
<polyline fill="none" vector-effect="non-scaling-stroke" points="339,725 337,726 335,727 334,728 333,730 333,732 333,733 " />
<polyline fill="none" vector-effect="non-scaling-stroke" points="347,728 347,727 " />
<polyline fill="none" vector-effect="non-scaling-stroke" points="354,731 355,729 354,727 353,726 351,725 349,725 348,726 347,727 " />
<polyline fill="none" vector-effect="non-scaling-stroke" points="354,731 347,743 " />
<polyline fill="none" vector-effect="non-scaling-stroke" points="347,743 355,743 " />
<polyline fill="none" vector-effect="non-scaling-stroke" points="361,743 361,742 " />
<polyline fill="none" vector-effect="non-scaling-stroke" points="367,725 371,725 " />
<polyline fill="none" vector-effect="non-scaling-stroke" points="371,733 373,732 374,731 375,729 375,727 373,726 372,725 371,725 " />
<polyline fill="none" vector-effect="non-scaling-stroke" points="369,733 371,733 " />
<polyline fill="none" vector-effect="non-scaling-stroke" points="375,737 375,735 373,734 371,733 " />
<polyline fill="none" vector-effect="non-scaling-stroke" points="375,737 375,739 " />
<polyline fill="none" vector-effect="non-scaling-stroke" points="371,743 373,742 374,741 375,739 " />
<polyline fill="none" vector-effect="non-scaling-stroke" points="371,743 367,743 " />
<polyline fill="none" vector-effect="non-scaling-stroke" points="389,739 389,737 " />
<polyline fill="none" vector-effect="non-scaling-stroke" points="389,737 389,735 387,734 385,733 383,733 382,734 381,736 381,737 " />
<polyline fill="none" vector-effect="non-scaling-stroke" points="381,737 381,739 " />
<polyline fill="none" vector-effect="non-scaling-stroke" points="381,739 382,741 383,742 385,743 387,743 388,741 389,740 389,739 " />
<polyline fill="none" vector-effect="non-scaling-stroke" points="385,733 387,732 388,731 389,729 389,727 388,726 386,725 385,725 " />
<polyline fill="none" vector-effect="non-scaling-stroke" points="385,725 383,725 382,727 381,729 381,731 383,732 384,733 385,733 " />
<polyline fill="none" vector-effect="non-scaling-stroke" points="401,726 400,725 399,725 398,725 397,726 " />
<polyline fill="none" vector-effect="non-scaling-stroke" points="397,726 396,728 396,730 395,732 395,734 395,736 395,737 396,739 397,741 397,742 " />
<polyline fill="none" vector-effect="non-scaling-stroke" points="397,742 398,743 399,743 400,743 401,742 " />
<polyline fill="none" vector-effect="non-scaling-stroke" points="401,742 402,740 403,738 403,736 403,734 403,732 403,730 402,728 401,727 401,726 " />
<polyline fill="none" vector-effect="non-scaling-stroke" points="415,726 414,725 413,725 412,725 411,726 " />
<polyline fill="none" vector-effect="non-scaling-stroke" points="411,726 410,728 410,730 409,732 409,734 409,736 410,737 410,739 411,741 411,742 " />
<polyline fill="none" vector-effect="non-scaling-stroke" points="411,742 412,743 413,743 415,743 415,742 " />
<polyline fill="none" vector-effect="non-scaling-stroke" points="415,742 416,740 417,738 417,736 417,734 417,732 417,730 416,728 416,727 415,726 " />
<polyline fill="none" vector-effect="non-scaling-stroke" points="149,722 149,757 " />
<polyline fill="none" vector-effect="non-scaling-stroke" points="601,722 601,757 " />
<polyline fill="none" vector-effect="non-scaling-stroke" points="9,67 741,67 " />
</g>

<g fill="#00ff00" fill-opacity="1" stroke="#00ff00" stroke-opacity="1" stroke-width="1" stroke-linecap="round" stroke-linejoin="round" transform="matrix(1,0,0,1,0,0)"
font-family="Noto Sans" font-size="10" font-weight="400" font-style="normal" 
>
<path vector-effect="non-scaling-stroke" fill-rule="evenodd" d="M9,67 L28,64 L28,70 L9,67"/>
</g>

<g fill="#00ff00" fill-opacity="1" stroke="#00ff00" stroke-opacity="1" stroke-width="1" stroke-linecap="round" stroke-linejoin="round" transform="matrix(1,0,0,1,0,0)"
font-family="Noto Sans" font-size="10" font-weight="400" font-style="normal" 
>
<path vector-effect="non-scaling-stroke" fill-rule="evenodd" d="M741,67 L722,70 L722,64 L741,67"/>
</g>

<g fill="none" stroke="#00ff00" stroke-opacity="1" stroke-width="1" stroke-linecap="round" stroke-linejoin="round" transform="matrix(1,0,0,1,0,0)"
font-family="Noto Sans" font-size="10" font-weight="400" font-style="normal" 
>
<polyline fill="none" vector-effect="non-scaling-stroke" points="330,48 334,44 " />
<polyline fill="none" vector-effect="non-scaling-stroke" points="334,44 334,62 " />
<polyline fill="none" vector-effect="non-scaling-stroke" points="346,45 345,45 344,44 342,45 " />
<polyline fill="none" vector-effect="non-scaling-stroke" points="342,45 341,47 340,49 340,51 340,53 340,55 340,57 341,59 341,61 342,61 " />
<polyline fill="none" vector-effect="non-scaling-stroke" points="342,61 343,62 344,62 345,62 346,61 " />
<polyline fill="none" vector-effect="non-scaling-stroke" points="346,61 347,60 347,58 348,56 348,54 348,52 347,50 347,48 346,46 346,45 " />
<polyline fill="none" vector-effect="non-scaling-stroke" points="354,48 358,44 " />
<polyline fill="none" vector-effect="non-scaling-stroke" points="358,44 358,62 " />
<polyline fill="none" vector-effect="non-scaling-stroke" points="364,62 364,61 " />
<polyline fill="none" vector-effect="non-scaling-stroke" points="376,45 375,45 374,44 373,45 372,45 " />
<polyline fill="none" vector-effect="non-scaling-stroke" points="372,45 371,47 371,49 370,51 370,53 370,55 370,57 371,59 372,61 " />
<polyline fill="none" vector-effect="non-scaling-stroke" points="372,61 373,62 374,62 375,62 376,61 " />
<polyline fill="none" vector-effect="non-scaling-stroke" points="376,61 377,60 377,58 378,56 378,54 378,52 378,50 377,48 376,46 376,45 " />
<polyline fill="none" vector-effect="non-scaling-stroke" points="390,45 389,45 388,44 387,45 386,45 " />
<polyline fill="none" vector-effect="non-scaling-stroke" points="386,45 385,47 385,49 384,51 384,53 384,55 384,57 385,59 386,61 " />
<polyline fill="none" vector-effect="non-scaling-stroke" points="386,61 387,62 388,62 389,62 390,61 " />
<polyline fill="none" vector-effect="non-scaling-stroke" points="390,61 391,60 392,58 392,56 392,54 392,52 392,50 391,48 390,46 390,45 " />
<polyline fill="none" vector-effect="non-scaling-stroke" points="404,45 403,45 402,44 401,45 400,45 " />
<polyline fill="none" vector-effect="non-scaling-stroke" points="400,45 399,47 399,49 398,51 398,53 398,55 399,57 399,59 400,61 " />
<polyline fill="none" vector-effect="non-scaling-stroke" points="400,61 401,62 402,62 404,62 404,61 " />
<polyline fill="none" vector-effect="non-scaling-stroke" points="404,61 405,60 406,58 406,56 406,54 406,52 406,50 405,48 404,46 404,45 " />
<polyline fill="none" vector-effect="non-scaling-stroke" points="418,45 417,45 416,44 415,45 414,45 " />
<polyline fill="none" vector-effect="non-scaling-stroke" points="414,45 413,47 413,49 412,51 412,53 412,55 413,57 413,59 414,61 " />
<polyline fill="none" vector-effect="non-scaling-stroke" points="414,61 415,62 416,62 418,62 418,61 " />
<polyline fill="none" vector-effect="non-scaling-stroke" points="418,61 419,60 420,58 420,56 420,54 420,52 420,50 419,48 419,46 418,45 " />
<polyline fill="none" vector-effect="non-scaling-stroke" points="9,98 9,58 " />
<polyline fill="none" vector-effect="non-scaling-stroke" points="741,98 741,58 " />
<polyline fill="none" vector-effect="non-scaling-stroke" points="715,717 715,215 " />
</g>

<g fill="#00ff00" fill-opacity="1" stroke="#00ff00" stroke-opacity="1" stroke-width="1" stroke-linecap="round" stroke-linejoin="round" transform="matrix(1,0,0,1,0,0)"
font-family="Noto Sans" font-size="10" font-weight="400" font-style="normal" 
>
<path vector-effect="non-scaling-stroke" fill-rule="evenodd" d="M715,717 L712,699 L718,699 L715,717"/>
</g>

<g fill="#00ff00" fill-opacity="1" stroke="#00ff00" stroke-opacity="1" stroke-width="1" stroke-linecap="round" stroke-linejoin="round" transform="matrix(1,0,0,1,0,0)"
font-family="Noto Sans" font-size="10" font-weight="400" font-style="normal" 
>
<path vector-effect="non-scaling-stroke" fill-rule="evenodd" d="M715,215 L718,233 L712,233 L715,215"/>
</g>

<g fill="none" stroke="#00ff00" stroke-opacity="1" stroke-width="1" stroke-linecap="round" stroke-linejoin="round" transform="matrix(1,0,0,1,0,0)"
font-family="Noto Sans" font-size="10" font-weight="400" font-style="normal" 
>
<polyline fill="none" vector-effect="non-scaling-stroke" points="701,508 701,504 " />
<polyline fill="none" vector-effect="non-scaling-stroke" points="705,500 703,501 701,502 701,504 " />
<polyline fill="none" vector-effect="non-scaling-stroke" points="705,500 707,500 " />
<polyline fill="none" vector-effect="non-scaling-stroke" points="707,508 709,508 710,506 711,505 710,503 709,501 707,500 " />
<polyline fill="none" vector-effect="non-scaling-stroke" points="707,508 701,508 " />
<polyline fill="none" vector-effect="non-scaling-stroke" points="693,502 693,504 695,506 696,507 698,508 700,508 701,508 " />
<polyline fill="none" vector-effect="non-scaling-stroke" points="703,486 703,490 " />
<polyline fill="none" vector-effect="non-scaling-stroke" points="699,494 701,494 702,492 703,491 703,490 " />
<polyline fill="none" vector-effect="non-scaling-stroke" points="699,494 697,494 " />
<polyline fill="none" vector-effect="non-scaling-stroke" points="697,486 695,487 693,488 693,490 693,492 694,493 696,494 697,494 " />
<polyline fill="none" vector-effect="non-scaling-stroke" points="697,486 703,486 " />
<polyline fill="none" vector-effect="non-scaling-stroke" points="711,492 710,490 709,489 707,487 705,487 703,486 " />
<polyline fill="none" vector-effect="non-scaling-stroke" points="711,480 710,480 " />
<polyline fill="none" vector-effect="non-scaling-stroke" points="693,474 693,470 " />
<polyline fill="none" vector-effect="non-scaling-stroke" points="701,470 700,468 699,467 697,466 695,466 693,468 693,469 693,470 " />
<polyline fill="none" vector-effect="non-scaling-stroke" points="701,472 701,470 " />
<polyline fill="none" vector-effect="non-scaling-stroke" points="705,466 703,467 701,468 701,470 " />
<polyline fill="none" vector-effect="non-scaling-stroke" points="705,466 707,466 " />
<polyline fill="none" vector-effect="non-scaling-stroke" points="711,470 710,468 709,467 707,466 " />
<polyline fill="none" vector-effect="non-scaling-stroke" points="711,470 711,474 " />
<polyline fill="none" vector-effect="non-scaling-stroke" points="693,452 693,460 " />
<polyline fill="none" vector-effect="non-scaling-stroke" points="693,460 701,460 " />
<polyline fill="none" vector-effect="non-scaling-stroke" points="701,460 701,456 " />
<polyline fill="none" vector-effect="non-scaling-stroke" points="705,452 703,452 701,454 701,456 " />
<polyline fill="none" vector-effect="non-scaling-stroke" points="705,452 707,452 " />
<polyline fill="none" vector-effect="non-scaling-stroke" points="711,456 710,454 709,453 707,452 " />
<polyline fill="none" vector-effect="non-scaling-stroke" points="711,456 711,460 " />
<polyline fill="none" vector-effect="non-scaling-stroke" points="694,440 693,441 693,442 693,443 694,444 " />
<polyline fill="none" vector-effect="non-scaling-stroke" points="694,444 695,445 697,445 699,446 701,446 703,446 705,446 707,445 709,444 710,444 " />
<polyline fill="none" vector-effect="non-scaling-stroke" points="710,444 710,443 711,442 710,441 710,440 " />
<polyline fill="none" vector-effect="non-scaling-stroke" points="710,440 708,439 706,438 704,438 702,438 700,438 698,438 696,439 694,440 " />
<polyline fill="none" vector-effect="non-scaling-stroke" points="694,426 693,427 693,428 693,429 694,430 " />
<polyline fill="none" vector-effect="non-scaling-stroke" points="694,430 695,431 697,431 699,432 701,432 703,432 705,431 707,431 709,430 710,430 " />
<polyline fill="none" vector-effect="non-scaling-stroke" points="710,430 710,429 711,428 710,426 " />
<polyline fill="none" vector-effect="non-scaling-stroke" points="710,426 708,425 706,424 704,424 702,424 700,424 698,424 696,425 694,426 " />
<polyline fill="none" vector-effect="non-scaling-stroke" points="605,717 724,717 " />
<polyline fill="none" vector-effect="non-scaling-stroke" points="605,215 724,215 " />
<polyline fill="none" vector-effect="non-scaling-stroke" points="780,717 780,102 " />
</g>

<g fill="#00ff00" fill-opacity="1" stroke="#00ff00" stroke-opacity="1" stroke-width="1" stroke-linecap="round" stroke-linejoin="round" transform="matrix(1,0,0,1,0,0)"
font-family="Noto Sans" font-size="10" font-weight="400" font-style="normal" 
>
<path vector-effect="non-scaling-stroke" fill-rule="evenodd" d="M780,717 L777,699 L783,699 L780,717"/>
</g>

<g fill="#00ff00" fill-opacity="1" stroke="#00ff00" stroke-opacity="1" stroke-width="1" stroke-linecap="round" stroke-linejoin="round" transform="matrix(1,0,0,1,0,0)"
font-family="Noto Sans" font-size="10" font-weight="400" font-style="normal" 
>
<path vector-effect="non-scaling-stroke" fill-rule="evenodd" d="M780,102 L783,120 L777,120 L780,102"/>
</g>

<g fill="none" stroke="#00ff00" stroke-opacity="1" stroke-width="1" stroke-linecap="round" stroke-linejoin="round" transform="matrix(1,0,0,1,0,0)"
font-family="Noto Sans" font-size="10" font-weight="400" font-style="normal" 
>
<polyline fill="none" vector-effect="non-scaling-stroke" points="772,445 770,445 " />
<polyline fill="none" vector-effect="non-scaling-stroke" points="770,445 768,445 766,447 766,448 766,450 767,452 769,453 770,453 " />
<polyline fill="none" vector-effect="non-scaling-stroke" points="770,453 772,453 " />
<polyline fill="none" vector-effect="non-scaling-stroke" points="772,453 774,452 775,451 776,449 776,447 774,446 772,445 " />
<polyline fill="none" vector-effect="non-scaling-stroke" points="766,449 765,447 764,445 762,445 760,445 759,446 758,448 758,449 " />
<polyline fill="none" vector-effect="non-scaling-stroke" points="758,449 758,451 760,452 761,453 763,452 765,451 766,449 " />
<polyline fill="none" vector-effect="non-scaling-stroke" points="758,435 772,439 " />
<polyline fill="none" vector-effect="non-scaling-stroke" points="772,439 772,429 " />
<polyline fill="none" vector-effect="non-scaling-stroke" points="768,432 776,432 " />
<polyline fill="none" vector-effect="non-scaling-stroke" points="776,423 775,423 " />
<polyline fill="none" vector-effect="non-scaling-stroke" points="768,409 768,413 " />
<polyline fill="none" vector-effect="non-scaling-stroke" points="764,417 766,416 767,415 768,413 " />
<polyline fill="none" vector-effect="non-scaling-stroke" points="764,417 762,417 " />
<polyline fill="none" vector-effect="non-scaling-stroke" points="762,409 760,409 758,410 758,412 758,414 759,416 761,417 762,417 " />
<polyline fill="none" vector-effect="non-scaling-stroke" points="762,409 768,409 " />
<polyline fill="none" vector-effect="non-scaling-stroke" points="776,415 775,413 774,411 772,410 771,409 769,409 768,409 " />
<polyline fill="none" vector-effect="non-scaling-stroke" points="758,395 758,403 " />
<polyline fill="none" vector-effect="non-scaling-stroke" points="758,403 766,403 " />
<polyline fill="none" vector-effect="non-scaling-stroke" points="766,403 766,399 " />
<polyline fill="none" vector-effect="non-scaling-stroke" points="770,395 768,395 766,396 766,398 766,399 " />
<polyline fill="none" vector-effect="non-scaling-stroke" points="770,395 772,395 " />
<polyline fill="none" vector-effect="non-scaling-stroke" points="776,399 775,397 774,395 772,395 " />
<polyline fill="none" vector-effect="non-scaling-stroke" points="776,399 776,403 " />
<polyline fill="none" vector-effect="non-scaling-stroke" points="759,382 758,383 758,385 758,386 759,386 " />
<polyline fill="none" vector-effect="non-scaling-stroke" points="759,386 761,387 762,388 764,388 766,388 768,388 770,388 772,388 774,387 775,386 " />
<polyline fill="none" vector-effect="non-scaling-stroke" points="775,386 776,385 776,384 775,383 775,382 " />
<polyline fill="none" vector-effect="non-scaling-stroke" points="775,382 773,382 771,381 769,381 767,380 765,381 763,381 761,381 759,382 " />
<polyline fill="none" vector-effect="non-scaling-stroke" points="759,368 758,369 758,371 758,372 759,372 " />
<polyline fill="none" vector-effect="non-scaling-stroke" points="759,372 761,373 762,374 764,374 766,374 768,374 770,374 772,373 774,373 775,372 " />
<polyline fill="none" vector-effect="non-scaling-stroke" points="775,372 776,371 776,370 775,369 775,368 " />
<polyline fill="none" vector-effect="non-scaling-stroke" points="775,368 773,368 771,367 769,367 767,366 765,366 763,367 761,367 759,368 " />
<polyline fill="none" vector-effect="non-scaling-stroke" points="732,717 789,717 " />
<polyline fill="none" vector-effect="non-scaling-stroke" points="745,102 789,102 " />
</g>
</g>
</svg>
